<?xml version="1.0" encoding="UTF-8" standalone="no"?>
<!-- Created with Inkscape (http://www.inkscape.org/) -->

<svg
   xmlns:dc="http://purl.org/dc/elements/1.1/"
   xmlns:cc="http://creativecommons.org/ns#"
   xmlns:rdf="http://www.w3.org/1999/02/22-rdf-syntax-ns#"
   xmlns:svg="http://www.w3.org/2000/svg"
   xmlns="http://www.w3.org/2000/svg"
   xmlns:sodipodi="http://sodipodi.sourceforge.net/DTD/sodipodi-0.dtd"
   xmlns:inkscape="http://www.inkscape.org/namespaces/inkscape"
   width="2in"
   height="2in"
   viewBox="0 0 50.800001 50.800001"
   version="1.1"
   id="svg8"
   inkscape:version="0.92.4 (5da689c313, 2019-01-14)"
   sodipodi:docname="design_1.svg"
   style="enable-background:new"
   inkscape:export-filename="/home/beka/Projects/uwunion_sticker/design.png"
   inkscape:export-xdpi="500"
   inkscape:export-ydpi="500">
  <defs
     id="defs2">
    <clipPath
       clipPathUnits="userSpaceOnUse"
       id="clipPath5149">
      <circle
         style="opacity:1;fill:#ff7608;fill-opacity:0.99563317;stroke:none;stroke-width:0.5;stroke-linecap:round;stroke-linejoin:round;stroke-miterlimit:4;stroke-dasharray:none;stroke-opacity:1"
         id="circle5151"
         cx="50.390865"
         cy="289.98853"
         r="32.600449" />
    </clipPath>
    <clipPath
       clipPathUnits="userSpaceOnUse"
       id="clipPath5209">
      <circle
         r="32.600449"
         cy="289.98853"
         cx="50.390865"
         id="circle5211"
         style="opacity:1;fill:#ff7608;fill-opacity:0.99563317;stroke:none;stroke-width:0.5;stroke-linecap:round;stroke-linejoin:round;stroke-miterlimit:4;stroke-dasharray:none;stroke-opacity:1" />
    </clipPath>
    <clipPath
       clipPathUnits="userSpaceOnUse"
       id="clipPath5320">
      <circle
         r="45.689865"
         cy="245.48187"
         cx="50.390862"
         id="circle5322"
         style="opacity:1;fill:#00ff00;fill-opacity:0.99563317;stroke:none;stroke-width:0.09709258;stroke-linecap:round;stroke-linejoin:round;stroke-miterlimit:4;stroke-dasharray:none;stroke-opacity:1" />
    </clipPath>
  </defs>
  <sodipodi:namedview
     id="base"
     pagecolor="#ffffff"
     bordercolor="#666666"
     borderopacity="1.0"
     inkscape:pageopacity="0.0"
     inkscape:pageshadow="2"
     inkscape:zoom="1.979899"
     inkscape:cx="94.240138"
     inkscape:cy="98.718675"
     inkscape:document-units="mm"
     inkscape:current-layer="layer6"
     showgrid="false"
     inkscape:window-width="1366"
     inkscape:window-height="731"
     inkscape:window-x="0"
     inkscape:window-y="18"
     inkscape:window-maximized="0"
     objecttolerance="20"
     inkscape:snap-global="false"
     units="in" />
  <metadata
     id="metadata5">
    <rdf:RDF>
      <cc:Work
         rdf:about="">
        <dc:format>image/svg+xml</dc:format>
        <dc:type
           rdf:resource="http://purl.org/dc/dcmitype/StillImage" />
        <dc:title></dc:title>
      </cc:Work>
    </rdf:RDF>
  </metadata>
  <g
     inkscape:groupmode="layer"
     id="layer7"
     inkscape:label="Sticker"
     transform="translate(0,-246.19998)">
    <g
       inkscape:groupmode="layer"
       id="layer3"
       inkscape:label="Backdrop"
       style="display:inline">
      <circle
         r="25.4"
         cy="271.60001"
         cx="25.4"
         id="circle5359"
         style="opacity:1;fill:#0a0000;fill-opacity:1;stroke:none;stroke-width:0.0539759;stroke-linecap:round;stroke-linejoin:round;stroke-miterlimit:4;stroke-dasharray:none;stroke-opacity:1" />
      <path
         inkscape:connector-curvature="0"
         id="path5369"
         d="M 25.4,252.55019 A 19.049825,19.049825 0 0 0 6.3500451,271.59986 19.049825,19.049825 0 0 0 11.056139,284.09985 18.68661,18.68661 0 0 1 25.4,277.3836 18.68661,18.68661 0 0 1 39.7416,284.11736 19.049825,19.049825 0 0 0 44.449954,271.59986 19.049825,19.049825 0 0 0 25.4,252.55019 Z"
         style="opacity:1;fill:#ff0000;fill-opacity:1;stroke:none;stroke-width:0.054486;stroke-linecap:round;stroke-linejoin:round;stroke-miterlimit:4;stroke-dasharray:none;stroke-opacity:1" />
    </g>
    <g
       inkscape:groupmode="layer"
       id="layer6"
       inkscape:label="Ears">
      <g
         id="g6381">
        <g
           id="g6371">
          <path
             sodipodi:nodetypes="ccc"
             inkscape:connector-curvature="0"
             id="path6129"
             d="m 18.329578,278.93045 c -4.123906,-3.99075 -5.472159,-5.27583 -9.7115133,-6.00366 0.6259582,4.78285 1.5854803,6.86987 3.6283643,10.29027"
             style="fill:none;fill-opacity:0.99563317;stroke:#000000;stroke-width:0.27316719;stroke-linecap:butt;stroke-linejoin:miter;stroke-miterlimit:4;stroke-dasharray:none;stroke-opacity:1" />
          <path
             style="opacity:1;fill:#5a0000;fill-opacity:1;stroke:none;stroke-width:0.27316719;stroke-linecap:butt;stroke-linejoin:miter;stroke-miterlimit:4;stroke-dasharray:none;stroke-opacity:1"
             d="m 15.487591,276.88467 c -1.715022,-0.88797 -3.359428,-0.85795 -5.007659,-0.87763 1.458957,0.37666 2.015167,0.88229 2.529642,1.39388 -0.413181,-0.11974 -0.860246,-0.10395 -1.34226,0.0516 1.187716,0.24092 1.581582,0.48184 1.961763,0.72276 -0.498945,0.12051 -0.752976,0.36347 -0.98088,0.6195 0.764465,0.1092 1.386357,0.30395 1.806886,0.61951 -0.383747,0.41472 -0.474386,0.73174 -0.671129,1.08413 0.699671,-0.0399 0.889334,-0.0636 1.520575,0.0334 l 2.684518,-1.51906 z"
             id="path6131"
             inkscape:connector-curvature="0"
             sodipodi:nodetypes="ccccccccccc" />
          <path
             style="fill:#000000;fill-opacity:0.99563317;stroke:none;stroke-width:0.14455096px;stroke-linecap:butt;stroke-linejoin:miter;stroke-opacity:1"
             d="m 21.86197,277.92344 c -2.567807,-2.27244 -9.867089,-6.04939 -14.0134763,-5.49 0.3930335,0.0728 0.4934869,0.1286 0.6701212,0.28931 -0.2872599,0.01 -0.4949336,0.0922 -0.6850438,0.18605 4.3747639,1.1915 6.5799289,3.15642 9.4321919,6.47989 z"
             id="path6125"
             inkscape:connector-curvature="0"
             sodipodi:nodetypes="cccccc" />
        </g>
        <g
           id="g6366">
          <path
             style="fill:none;fill-opacity:0.99563317;stroke:#000000;stroke-width:0.27316719;stroke-linecap:butt;stroke-linejoin:miter;stroke-miterlimit:4;stroke-dasharray:none;stroke-opacity:1"
             d="m 32.470423,278.93045 c 4.123906,-3.99075 5.472159,-5.27583 9.711513,-6.00366 -0.625958,4.78285 -1.58548,6.86987 -3.628364,10.29027"
             id="path6222"
             inkscape:connector-curvature="0"
             sodipodi:nodetypes="ccc" />
          <path
             sodipodi:nodetypes="ccccccccccc"
             inkscape:connector-curvature="0"
             id="path6224"
             d="m 35.31241,276.88467 c 1.715022,-0.88797 3.359428,-0.85795 5.007659,-0.87763 -1.458957,0.37666 -2.015167,0.88229 -2.529642,1.39388 0.413181,-0.11974 0.860246,-0.10395 1.34226,0.0516 -1.187716,0.24092 -1.581582,0.48184 -1.961763,0.72276 0.498945,0.12051 0.752976,0.36347 0.98088,0.6195 -0.764465,0.1092 -1.386357,0.30395 -1.806886,0.61951 0.383747,0.41472 0.474386,0.73174 0.671129,1.08413 -0.699671,-0.0399 -0.889334,-0.0636 -1.520575,0.0334 l -2.684518,-1.51906 z"
             style="opacity:1;fill:#5a0000;fill-opacity:1;stroke:none;stroke-width:0.27316719;stroke-linecap:butt;stroke-linejoin:miter;stroke-miterlimit:4;stroke-dasharray:none;stroke-opacity:1" />
          <path
             sodipodi:nodetypes="cccccc"
             inkscape:connector-curvature="0"
             id="path6226"
             d="m 28.938031,277.92344 c 2.567807,-2.27244 9.867089,-6.04939 14.013476,-5.49 -0.393033,0.0728 -0.493487,0.1286 -0.670121,0.28931 0.28726,0.01 0.494934,0.0922 0.685044,0.18605 -4.374764,1.1915 -6.579929,3.15642 -9.432192,6.47989 z"
             style="fill:#000000;fill-opacity:0.99563317;stroke:none;stroke-width:0.14455096px;stroke-linecap:butt;stroke-linejoin:miter;stroke-opacity:1" />
        </g>
      </g>
    </g>
    <g
       inkscape:groupmode="layer"
       id="layer2"
       inkscape:label="Globe"
       style="display:inline">
      <path
         style="color:#000000;font-style:normal;font-variant:normal;font-weight:normal;font-stretch:normal;font-size:medium;line-height:normal;font-family:sans-serif;font-variant-ligatures:normal;font-variant-position:normal;font-variant-caps:normal;font-variant-numeric:normal;font-variant-alternates:normal;font-feature-settings:normal;text-indent:0;text-align:start;text-decoration:none;text-decoration-line:none;text-decoration-style:solid;text-decoration-color:#000000;letter-spacing:normal;word-spacing:normal;text-transform:none;writing-mode:lr-tb;direction:ltr;text-orientation:mixed;dominant-baseline:auto;baseline-shift:baseline;text-anchor:start;white-space:normal;shape-padding:0;clip-rule:nonzero;display:inline;overflow:visible;visibility:visible;opacity:1;isolation:auto;mix-blend-mode:normal;color-interpolation:sRGB;color-interpolation-filters:linearRGB;solid-color:#000000;solid-opacity:1;vector-effect:none;fill:#ff0000;fill-opacity:1;fill-rule:nonzero;stroke:none;stroke-width:0.27316719;stroke-linecap:round;stroke-linejoin:round;stroke-miterlimit:4;stroke-dasharray:none;stroke-dashoffset:0;stroke-opacity:1;color-rendering:auto;image-rendering:auto;shape-rendering:auto;text-rendering:auto;enable-background:accumulate"
         d="m 25.400381,277.70037 c -7.85243,0 -14.52813,5.04565 -16.9624349,12.07085 a 24.888934,24.888934 0 0 0 0.217673,0.20271 c 0.06553,-0.19351 0.13468,-0.38551 0.206662,-0.57595 0.85491,0.79477 1.7675049,1.52796 2.7300939,2.19424 -0.04439,0.20689 -0.0854,0.41511 -0.122812,0.62451 a 24.888934,24.888934 0 0 0 0.252118,0.15471 c 0.03524,-0.20443 0.07406,-0.40778 0.116036,-0.60982 1.165891,0.78607 2.404257,1.47242 3.701859,2.04969 -0.01511,0.20387 -0.02764,0.40842 -0.03727,0.61377 a 24.888934,24.888934 0 0 0 0.268492,0.12197 c 0.0087,-0.20673 0.02015,-0.41279 0.03444,-0.61801 1.390106,0.59848 2.847156,1.0709 4.356856,1.40288 -2.89e-4,0.0535 -0.0012,0.10681 -0.0012,0.16036 0,0.14225 0.0016,0.28414 0.0031,0.42603 a 24.888934,24.888934 0 0 0 0.273856,0.07 c -0.0021,-0.16518 -0.0037,-0.33037 -0.0037,-0.49604 0,-0.0345 7.23e-4,-0.0689 8.68e-4,-0.10333 1.560053,0.32421 3.174608,0.49905 4.828624,0.50818 v 0.58498 a 24.888934,24.888934 0 0 0 0.136363,0.007 24.888934,24.888934 0 0 0 0.136646,-0.005 v -0.58695 c 1.654121,-0.009 3.268792,-0.18395 4.828906,-0.50819 9.1e-5,0.0345 8.67e-4,0.0688 8.67e-4,0.10333 0,0.157 -0.0018,0.31352 -0.0037,0.47007 a 24.888934,24.888934 0 0 0 0.273857,-0.0615 c 0.0014,-0.13607 0.0028,-0.27213 0.0028,-0.40853 0,-0.0536 -8.67e-4,-0.10686 -0.0012,-0.16036 1.509514,-0.33193 2.966647,-0.80392 4.356574,-1.40231 0.01376,0.19758 0.02533,0.39588 0.03388,0.59486 a 24.888934,24.888934 0 0 0 0.268492,-0.12027 c -0.0095,-0.19834 -0.02154,-0.39593 -0.03614,-0.59289 1.29724,-0.57714 2.53543,-1.26326 3.701012,-2.04912 0.0424,0.20407 0.08136,0.40924 0.116884,0.61575 a 24.888934,24.888934 0 0 0 0.248164,-0.17758 c -0.03658,-0.20372 -0.07651,-0.40622 -0.119706,-0.60757 0.962807,-0.66642 1.875302,-1.40011 2.730376,-2.19508 0.07238,0.19149 0.141659,0.38445 0.20751,0.57905 a 24.888934,24.888934 0 0 0 0.220497,-0.19368 c -2.430587,-7.03141 -9.108656,-12.08271 -16.965523,-12.08271 z m -6.966679,1.70045 c 0.293515,0.26232 0.601916,0.50803 0.92377,0.7363 -0.924312,0.62338 -1.790599,1.32614 -2.586106,2.10164 -0.460959,-0.37436 -0.897248,-0.77787 -1.305758,-1.20807 0.930036,-0.63309 1.922427,-1.18115 2.968094,-1.62987 z m 13.933076,0 c 1.045532,0.44867 2.037887,0.99687 2.967812,1.62987 -0.40864,0.43033 -0.844933,0.8339 -1.306041,1.20835 -0.795436,-0.77548 -1.661599,-1.47854 -2.585825,-2.10192 0.321911,-0.2283 0.630484,-0.47393 0.924054,-0.7363 z m -12.771587,0.89949 c 0.382745,0.25593 0.782924,0.48746 1.19904,0.69198 -0.705889,0.83264 -1.351965,1.71732 -1.931959,2.64765 -0.660676,-0.35955 -1.288239,-0.77177 -1.877468,-1.23122 0.802113,-0.77971 1.675996,-1.48584 2.610387,-2.10841 z m 11.609533,5.8e-4 c 0.934422,0.62261 1.808258,1.32837 2.610387,2.10812 -0.5891,0.45931 -1.216404,0.87178 -1.876903,1.23123 -0.580059,-0.93037 -1.226278,-1.81498 -1.932241,-2.64766 0.415976,-0.20444 0.816123,-0.43586 1.198757,-0.69169 z m -10.157529,0.81225 c 0.523322,0.23995 1.070108,0.43682 1.635515,0.58865 -0.382648,1.00707 -0.725209,2.03369 -1.024562,3.07876 -0.892835,-0.253 -1.748474,-0.59434 -2.557027,-1.01383 0.582912,-0.9337 1.234814,-1.81983 1.946074,-2.65358 z m 8.705808,2.9e-4 c 0.711292,0.83372 1.36284,1.7199 1.945792,2.65358 -0.808368,0.41937 -1.66385,0.76032 -2.556463,1.01327 -0.299313,-1.04487 -0.641697,-2.07161 -1.02428,-3.07848 0.565212,-0.15179 1.111799,-0.34851 1.634951,-0.58837 z m -14.514668,0.0717 c 0.419085,0.44412 0.86685,0.86076 1.340484,1.24703 -0.802482,0.80555 -1.531545,1.68385 -2.175604,2.62535 -0.621448,-0.50847 -1.207322,-1.05889 -1.752681,-1.64737 0.788557,-0.82116 1.654118,-1.56802 2.587801,-2.22501 z m 20.32381,2.9e-4 c 0.933623,0.65696 1.799014,1.40361 2.587519,2.22473 -0.545476,0.58866 -1.131347,1.13905 -1.752962,1.64765 -0.644002,-0.94147 -1.372919,-1.8198 -2.175323,-2.62535 0.473682,-0.38629 0.921632,-0.80287 1.340766,-1.24703 z m -12.616024,0.58582 c 0.744541,0.1791 1.520663,0.27631 2.317614,0.28657 v 3.2394 c -1.154184,-0.0113 -2.274115,-0.16505 -3.343023,-0.44494 0.299409,-1.04591 0.641983,-2.07351 1.025409,-3.08103 z m 4.907956,2.9e-4 c 0.383429,1.00744 0.726261,2.03492 1.025691,3.08075 -1.068924,0.27989 -2.188782,0.43366 -3.343023,0.44494 v -3.23944 c 0.796931,-0.0102 1.572838,-0.10722 2.317332,-0.28628 z m -11.063232,0.83033 c 0.604635,0.47393 1.249266,0.89908 1.928005,1.26962 -0.587705,0.96869 -1.104139,1.98546 -1.542064,3.04291 -0.905257,-0.48717 -1.761856,-1.05232 -2.561827,-1.68634 0.642676,-0.94297 1.372296,-1.82138 2.175886,-2.62619 z m 17.218506,5.7e-4 c 0.80348,0.80476 1.53302,1.68331 2.175605,2.6262 -0.799724,0.63379 -1.656304,1.19876 -2.561262,1.68577 -0.437942,-1.05737 -0.954358,-2.074 -1.542066,-3.04263 0.678671,-0.37049 1.323136,-0.79546 1.927723,-1.26934 z m -21.547129,1.00367 c 0.556665,0.59957 1.154661,1.16023 1.789101,1.67787 -0.597056,0.90092 -1.11856,1.85613 -1.552794,2.85827 -0.785764,-0.60431 -1.526704,-1.26401 -2.218237,-1.97205 0.582575,-0.91519 1.245847,-1.77374 1.98193,-2.56409 z m 25.875753,0 c 0.736168,0.79045 1.399603,1.64904 1.982212,2.56437 -0.691697,0.70818 -1.432833,1.36793 -2.2188,1.97233 -0.434231,-1.00224 -0.955718,-1.95753 -1.552794,-2.85855 0.634544,-0.51774 1.23264,-1.07843 1.789382,-1.67815 z m -19.378018,0.39356 c 0.82977,0.43211 1.708192,0.78326 2.625069,1.0432 -0.30392,1.09003 -0.561498,2.19942 -0.770468,3.3258 -1.187416,-0.32397 -2.323678,-0.7711 -3.395254,-1.32608 0.43645,-1.05814 0.952582,-2.07466 1.540653,-3.04292 z m 12.880283,2.9e-4 c 0.588115,0.96825 1.104447,1.9848 1.540936,3.04291 -1.071416,0.55489 -2.207725,1.00216 -3.394972,1.32609 -0.208977,-1.12647 -0.466521,-2.23569 -0.770468,-3.3258 0.916667,-0.25989 1.794908,-0.61121 2.624504,-1.0432 z m -9.993781,1.11463 c 1.092644,0.28679 2.237447,0.44405 3.417276,0.45539 v 3.40852 c -1.443863,-0.0111 -2.845448,-0.1987 -4.184919,-0.5415 0.207943,-1.12534 0.464323,-2.23361 0.767643,-3.32241 z m 7.107562,0 c 0.303393,1.0889 0.559931,2.19725 0.767927,3.32269 -1.33954,0.34281 -2.741233,0.5301 -4.185203,0.54122 v -3.40852 c 1.179848,-0.0113 2.324638,-0.1686 3.417276,-0.45539 z m -14.489543,0.34076 c 0.814942,0.64424 1.687776,1.21793 2.609823,1.71231 -0.399653,0.99951 -0.73019,2.03388 -0.984188,3.09825 -1.116512,-0.55805 -2.175296,-1.21372 -3.16657,-1.95511 0.429173,-1.0016 0.947208,-1.95576 1.540935,-2.85545 z m 21.870959,2.9e-4 c 0.593831,0.89988 1.111738,1.85418 1.540936,2.85601 -0.990973,0.74109 -2.049603,1.3964 -3.165724,1.95427 -0.254035,-1.0644 -0.58504,-2.09872 -0.984753,-3.09825 0.921852,-0.49432 1.794765,-1.06789 2.609541,-1.71203 z m 4.132125,0.95172 c 0.528941,0.86072 0.985844,1.77015 1.36307,2.72022 -0.841695,0.78938 -1.740517,1.51824 -2.689156,2.18097 -0.231782,-1.00253 -0.5446,-1.97373 -0.931959,-2.90655 0.799724,-0.61078 1.553823,-1.27813 2.258045,-1.99464 z m -30.134926,2.9e-4 c 0.704158,0.71644 1.458376,1.38335 2.258044,1.99407 -0.387416,0.93287 -0.700708,1.90395 -0.932523,2.90655 -0.948453,-0.6626 -1.8470359,-1.39149 -2.6885919,-2.18069 0.377232,-0.94999 0.834155,-1.85927 1.3630709,-2.71993 z m 6.983901,0.88792 c 1.088477,0.56199 2.242702,1.01471 3.448331,1.34218 -0.187354,1.0513 -0.331913,2.11744 -0.432806,3.19621 -1.39055,-0.34723 -2.725656,-0.83402 -3.989832,-1.44466 0.250304,-1.06296 0.577175,-2.096 0.974307,-3.09373 z m 16.167406,0 c 0.397184,0.99773 0.723964,2.03105 0.974307,3.09401 -1.264197,0.61064 -2.599261,1.09716 -3.989832,1.44438 -0.10089,-1.07874 -0.245176,-2.14493 -0.432524,-3.19621 1.20564,-0.32749 2.359601,-0.78014 3.448049,-1.34218 z m -20.666837,1.27492 c 1.005608,0.74703 2.079207,1.40731 3.210895,1.96866 -0.219265,0.97281 -0.375227,1.96948 -0.46358,2.9856 -1.284576,-0.57724 -2.510043,-1.26297 -3.662898,-2.04743 0.225241,-1.00283 0.532841,-1.974 0.915583,-2.90683 z m 25.165703,2.9e-4 c 0.382696,0.9328 0.690105,1.90431 0.915301,2.90711 -1.15268,0.78433 -2.377678,1.46971 -3.662051,2.04686 -0.08838,-1.01622 -0.244247,-2.01298 -0.46358,-2.98588 1.13144,-0.56127 2.204909,-1.22121 3.21033,-1.96809 z M 21.029973,288.706 c 1.355526,0.34553 2.77341,0.53407 4.233762,0.54517 v 3.20271 c -1.604131,-0.0103 -3.165466,-0.20059 -4.664028,-0.55364 0.09954,-1.07822 0.243846,-2.1436 0.430266,-3.19424 z m 8.740817,0 c 0.186456,1.05064 0.330698,2.11602 0.430265,3.19424 -1.498641,0.35307 -3.060088,0.54334 -4.66431,0.55364 v -3.20271 c 1.460475,-0.0111 2.878481,-0.1996 4.234045,-0.54517 z m -13.490107,1.95539 c 1.276476,0.6121 2.623816,1.09948 4.026535,1.44692 -0.08397,0.97187 -0.132145,1.9539 -0.14314,2.94494 -1.502893,-0.33407 -2.952566,-0.80888 -4.334835,-1.40993 0.08381,-1.01495 0.23561,-2.01042 0.45144,-2.98193 z m 18.239114,0 c 0.21589,0.97157 0.367891,1.96691 0.451722,2.98193 -1.382361,0.60112 -2.832086,1.07641 -4.335117,1.4105 -0.01099,-0.99113 -0.05917,-1.97329 -0.14314,-2.94523 1.402738,-0.34745 2.750057,-0.83506 4.026535,-1.4472 z m -13.944087,1.51298 c 1.506956,0.35222 3.076216,0.54228 4.688025,0.55252 v 2.89723 c -1.653979,-0.009 -3.267972,-0.18612 -4.826648,-0.51355 0.0096,-0.98813 0.05609,-1.96719 0.138623,-2.9362 z m 9.649342,2.9e-4 c 0.08255,0.969 0.129047,1.94807 0.138623,2.9362 -1.558689,0.32743 -3.1729,0.50405 -4.82693,0.51326 v -2.89723 c 1.611919,-0.0102 3.181302,-0.19997 4.688307,-0.55223 z"
         id="circle5419"
         inkscape:connector-curvature="0" />
    </g>
    <g
       inkscape:groupmode="layer"
       id="layer4"
       inkscape:label="Join the One Big Polycule"
       style="display:inline">
      <g
         id="text5365"
         style="font-style:normal;font-weight:normal;font-size:7.05555534px;line-height:1.25;font-family:sans-serif;letter-spacing:0.55297917px;word-spacing:0px;display:inline;fill:#ff0000;fill-opacity:1;stroke:none;stroke-width:0.26458332"
         aria-label="   JOIN  THE  ONE  BIG  POLYCULE   "
         transform="matrix(0.5463344,0,0,0.5463344,-2.1302609,137.4848)">
        <path
           inkscape:connector-curvature="0"
           id="path5636"
           style="font-style:normal;font-variant:normal;font-weight:bold;font-stretch:normal;font-size:8.81944561px;font-family:'Alte Haas Grotesk';-inkscape-font-specification:'Alte Haas Grotesk Bold';letter-spacing:0.55297917px;fill:#ff0000;fill-opacity:1;stroke-width:0.26458332"
           d="m 10.246898,263.2705 -0.3148015,-0.68035 q -0.040739,-0.088 -0.06977,-0.17179 -0.029031,-0.0837 -0.00753,-0.14228 0.025207,-0.0505 0.1015445,-0.0956 0.064631,-0.0493 0.152676,-0.0901 0.08434,-0.0487 0.176092,-0.0815 0.08805,-0.0407 0.160082,-0.0741 l 1.608834,-0.74442 1.360705,-0.6296 q 0.184095,-0.0852 0.384199,-0.17777 0.188396,-0.0969 0.366997,-0.13094 0.04743,-0.003 0.08745,-0.021 0.02831,-0.0228 0.07574,-0.0253 0.08315,-0.009 0.170597,-0.0303 0.07944,-0.0173 0.166296,-0.0186 0.521706,-0.0276 0.905671,0.19316 0.131891,0.075 0.250881,0.18517 0.115286,0.10214 0.229974,0.224 0.04564,0.0566 0.08327,0.11695 0.04193,0.0486 0.08757,0.10525 0.04564,0.0566 0.08267,0.13667 0.03333,0.072 0.08267,0.13667 l 0.04074,0.088 q 0.03823,0.0406 0.07097,0.13237 0.03703,0.08 0.04325,0.13547 0.04074,0.088 0.05125,0.13177 0.02103,0.0875 0.05006,0.1712 0.02533,0.0757 0.03895,0.14718 0.0087,0.10286 0.02545,0.20201 0.01673,0.0992 0.01374,0.19772 0.0065,0.30798 -0.08935,0.60497 -0.103811,0.3007 -0.308094,0.53127 -0.06523,0.0691 -0.134158,0.1301 -0.06893,0.061 -0.145866,0.1258 -0.05663,0.0456 -0.08864,0.0605 -0.03261,0.0345 -0.06463,0.0493 -0.03572,0.007 -0.06833,0.0413 -0.0123,0.0154 -0.03632,0.0265 -0.03202,0.0148 -0.04803,0.0222 l -0.08004,0.037 q -0.03632,0.0265 -0.07634,0.045 -0.04802,0.0222 -0.08805,0.0407 -0.112058,0.0519 -0.211811,0.0883 -0.107758,0.0401 -0.177407,-0.005 -0.06965,-0.0455 -0.117795,-0.14957 -0.05185,-0.11206 -0.09629,-0.20811 -0.03333,-0.072 -0.07778,-0.16808 -0.05245,-0.0924 -0.08518,-0.1841 -0.04444,-0.096 -0.06177,-0.17549 -0.02103,-0.0875 0.0079,-0.12998 0.05412,-0.0931 0.18959,-0.13632 0.13177,-0.0513 0.232717,-0.12711 0.04062,-0.0382 0.08864,-0.0605 0.03632,-0.0265 0.07694,-0.0648 0.09724,-0.0839 0.171072,-0.17634 0.06582,-0.0888 0.08912,-0.20643 0.02759,-0.12939 -0.0022,-0.31969 -0.02975,-0.19031 -0.151249,-0.34789 -0.03453,-0.0326 -0.04934,-0.0646 -0.01481,-0.032 -0.04564,-0.0566 -0.207157,-0.19568 -0.476312,-0.16832 -0.08685,10e-4 -0.162593,0.0266 -0.08375,0.029 -0.179197,0.0538 -0.04803,0.0222 -0.08805,0.0407 -0.04803,0.0222 -0.09975,0.0364 -0.04373,0.0105 -0.08805,0.0407 -0.05603,0.0259 -0.104054,0.0481 l -0.384199,0.17777 -2.145111,0.99255 -0.768398,0.35555 q -0.08805,0.0407 -0.180392,0.0932 -0.09605,0.0444 -0.178601,0.034 -0.06284,-0.01 -0.135595,-0.083 -0.02222,-0.048 -0.03763,-0.0603 z" />
        <path
           inkscape:connector-curvature="0"
           id="path5638"
           style="font-style:normal;font-variant:normal;font-weight:bold;font-stretch:normal;font-size:8.81944561px;font-family:'Alte Haas Grotesk';-inkscape-font-specification:'Alte Haas Grotesk Bold';letter-spacing:0.55297917px;fill:#ff0000;fill-opacity:1;stroke-width:0.26458332"
           d="m 10.020004,253.11508 q 0.04657,-0.0307 0.174369,-0.0649 0.117006,-0.0404 0.172683,-0.037 l 0.110763,-0.0296 q 0.08976,-0.006 0.18348,-0.0308 0.09372,-0.0251 0.192001,-0.0331 0.0642,0.001 0.126117,-0.006 0.06192,-0.007 0.126116,-0.006 0.164753,0.002 0.320986,0.005 0.153955,-0.005 0.306223,0.0186 0.66475,0.0962 1.181367,0.42364 0.508096,0.32975 0.891934,0.91183 0.05914,0.0846 0.101232,0.17378 0.0421,0.0892 0.08419,0.17833 0.02843,0.038 0.0421,0.0892 0.01139,0.0426 0.0313,0.0829 l 0.100727,0.27434 q 0.01763,0.0318 0.03189,0.11928 0.02278,0.0852 0.02109,0.11304 0.0029,0.0449 0.01426,0.0875 0.01763,0.0318 0.0205,0.0767 l 0.02506,0.0937 q 0.0012,0.0727 0.0086,0.13463 0.01595,0.0596 0.01713,0.13236 0.0012,0.0727 0.0024,0.14544 0.0097,0.0704 0.01088,0.14315 -0.009,0.10284 -0.01577,0.21419 -0.009,0.10284 -0.02657,0.20795 -0.08486,0.57043 -0.355564,1.02623 -0.281503,0.44955 -0.733495,0.80774 -0.105617,0.083 -0.224309,0.15126 -0.127213,0.0705 -0.252148,0.14957 -0.03805,0.0284 -0.06361,0.0353 -0.03408,0.009 -0.06588,0.0267 -0.05509,0.033 -0.11245,0.0574 -0.06588,0.0267 -0.129491,0.062 -0.04032,0.0199 -0.0744,0.029 -0.04488,0.003 -0.07441,0.029 -0.04884,0.0222 -0.102242,0.0273 -0.06192,0.007 -0.110764,0.0296 -0.03805,0.0284 -0.123248,0.0512 -0.09372,0.0251 -0.140879,0.0194 -0.04488,0.003 -0.07668,0.0205 -0.04032,0.0199 -0.0852,0.0228 l -0.05112,0.0137 q -0.0642,-0.001 -0.113041,0.0211 -0.05964,0.0159 -0.115318,0.0126 -0.04716,-0.006 -0.08976,0.006 -0.05112,0.0137 -0.09828,0.008 -0.156233,-0.004 -0.29939,0.007 -0.151677,0.0132 -0.301668,-0.002 -0.163066,-0.0294 -0.323854,-0.0504 -0.1607885,-0.0209 -0.3113697,-0.072 -0.4773041,-0.14627 -0.8387844,-0.40567 -0.3614803,-0.2594 -0.6850003,-0.68415 -0.072212,-0.0994 -0.1296615,-0.21182 -0.059727,-0.12097 -0.1256967,-0.23115 -0.028429,-0.038 -0.03754,-0.0721 -0.011389,-0.0426 -0.031298,-0.0829 l -0.093894,-0.24877 q -0.013076,-0.0148 -0.011389,-0.0426 -5.908e-4,-0.0364 -0.013667,-0.0511 -0.1787615,-0.60039 -0.1523611,-1.08216 0.01788,-0.4795 0.1715788,-0.89488 0.047071,-0.13126 0.1174254,-0.27788 0.061834,-0.14434 0.1435769,-0.24835 0.031212,-0.054 0.070945,-0.11026 0.031212,-0.054 0.064702,-0.0995 0.1112684,-0.13017 0.2310571,-0.26261 0.1112684,-0.13017 0.2549307,-0.24161 0.1056168,-0.083 0.2072688,-0.1467 0.099374,-0.0722 0.215789,-0.14898 0.078369,-0.0483 0.1675362,-0.0904 0.080647,-0.0398 0.1675361,-0.0904 0.055086,-0.033 0.1147278,-0.0489 0.051121,-0.0137 0.097687,-0.0444 0.046566,-0.0307 0.1084853,-0.0381 0.051121,-0.0137 0.091445,-0.0336 z m 0.710903,1.22497 q -0.04716,-0.006 -0.123839,0.0148 -0.0852,0.0228 -0.123248,0.0512 l -0.144844,0.0387 q -0.0318,0.0176 -0.05736,0.0245 -0.03636,5.9e-4 -0.06588,0.0267 -0.06361,0.0353 -0.12097,0.0597 -0.06816,0.0182 -0.1232484,0.0512 -0.042601,0.0114 -0.089167,0.0421 -0.086889,0.0506 -0.1737786,0.10124 -0.086889,0.0506 -0.1692231,0.11827 -0.3844213,0.30361 -0.5528826,0.73207 -0.1792594,0.42222 -0.010705,1.05272 0.013076,0.0148 0.019909,0.0403 -0.00396,0.0193 0.00911,0.0341 0.017631,0.0318 0.026742,0.0659 5.908e-4,0.0364 0.02902,0.0744 0.042096,0.0892 0.092712,0.17606 0.039818,0.0806 0.094399,0.14821 0.2490302,0.31685 0.5786218,0.45697 0.3273139,0.1316 0.7448909,0.1569 0.100556,5.1e-4 0.198834,-0.008 0.08748,-0.0143 0.188036,-0.0138 0.03636,-5.9e-4 0.07044,-0.01 0.02556,-0.007 0.06192,-0.007 0.04716,0.006 0.096,-0.0165 0.04884,-0.0222 0.09372,-0.0251 0.04716,0.006 0.168718,-0.0177 0.110763,-0.0296 0.148809,-0.058 l 0.09372,-0.0251 q 0.0318,-0.0176 0.07441,-0.029 0.03408,-0.009 0.06588,-0.0267 0.03408,-0.009 0.06816,-0.0182 0.02328,-0.0154 0.05736,-0.0245 0.08689,-0.0506 0.178334,-0.0842 0.08917,-0.0421 0.165258,-0.099 0.247592,-0.16661 0.449715,-0.36672 0.193602,-0.19782 0.28378,-0.44103 0.03121,-0.054 0.04538,-0.10342 0.01189,-0.058 0.02379,-0.11591 0.03459,-0.10967 0.04133,-0.22102 0.0045,-0.11987 0.0067,-0.24827 0.0057,-0.0472 -0.0035,-0.0812 -0.01991,-0.0403 -0.02278,-0.0852 0.0034,-0.0557 -0.01029,-0.1068 -0.01367,-0.0511 -0.02961,-0.11076 l -0.01822,-0.0682 q -0.01991,-0.0403 -0.0205,-0.0767 -0.0091,-0.0341 -0.03754,-0.0721 -0.03982,-0.0806 -0.07112,-0.16357 -0.03982,-0.0806 -0.0944,-0.14822 -0.242788,-0.32765 -0.5275,-0.47064 -0.286991,-0.1515 -0.692083,-0.1984 -0.105111,-0.0175 -0.22043,-0.005 -0.117596,0.004 -0.23747,-4.2e-4 l -0.211319,0.0291 q -0.03636,5.9e-4 -0.07044,0.01 -0.0426,0.0114 -0.0852,0.0228 z" />
        <path
           inkscape:connector-curvature="0"
           id="path5640"
           style="font-style:normal;font-variant:normal;font-weight:bold;font-stretch:normal;font-size:8.81944561px;font-family:'Alte Haas Grotesk';-inkscape-font-specification:'Alte Haas Grotesk Bold';letter-spacing:0.55297917px;fill:#ff0000;fill-opacity:1;stroke-width:0.26458332"
           d="m 6.8827663,251.25791 -0.091338,-0.75295 q -0.011683,-0.0963 -0.013548,-0.18493 -0.010621,-0.0875 0.045356,-0.13876 0.055976,-0.0512 0.1522843,-0.0629 0.095246,-0.0204 0.2090643,-0.0343 l 0.7617079,-0.0924 3.0380762,-0.36854 1.435863,-0.17418 q 0.113818,-0.0138 0.253902,-0.0308 0.139022,-0.0257 0.214375,0.01 0.06553,0.0276 0.115425,0.14591 0.02495,0.0592 0.02469,0.13026 -2.58e-4,0.0711 0.0082,0.14115 l 0.06266,0.51656 q 0.01168,0.0963 0.01355,0.18492 8.03e-4,0.0799 -0.0366,0.13771 -0.03847,0.0491 -0.124957,0.0685 -0.08649,0.0194 -0.182798,0.0311 l -0.761708,0.0924 -3.1956704,0.38765 -1.2782684,0.15506 q -0.1225737,0.0149 -0.2878616,0.0438 -0.16635,0.0202 -0.2417024,-0.0151 -0.05678,-0.0286 -0.1013596,-0.1032 -0.00319,-0.0263 -0.00531,-0.0438 -0.011941,-0.0252 -0.014066,-0.0427 z" />
        <path
           inkscape:connector-curvature="0"
           id="path5642"
           style="font-style:normal;font-variant:normal;font-weight:bold;font-stretch:normal;font-size:8.81944561px;font-family:'Alte Haas Grotesk';-inkscape-font-specification:'Alte Haas Grotesk Bold';letter-spacing:0.55297917px;fill:#ff0000;fill-opacity:1;stroke-width:0.26458332"
           d="m 6.4670949,247.25165 0.010515,-0.7143 q 0.00143,-0.097 0.00273,-0.18519 -0.00739,-0.0971 0.028922,-0.16716 0.036572,-0.0877 0.1077691,-0.13072 0.071327,-0.0519 0.1425238,-0.0949 l 0.5073273,-0.31006 q 0.5071974,-0.30125 1.0143949,-0.6025 0.4985088,-0.31019 1.0057062,-0.61144 0.2403061,-0.14641 0.4893009,-0.28387 0.2403059,-0.14641 0.4719239,-0.30177 0.05343,-0.0345 0.10673,-0.0602 0.05343,-0.0345 0.0983,-0.0868 0.0179,-0.0174 0.03592,-0.0436 0.01803,-0.0262 7.79e-4,-0.0529 -0.01673,-0.062 -0.07846,-0.0629 -0.06173,-9.1e-4 -0.132018,-0.0196 -0.0616,-0.01 -0.132277,-0.002 -0.07937,-0.001 -0.1499145,-0.002 l -0.5555649,-0.008 -2.0458897,-0.0301 -0.3351026,-0.005 q -0.044092,-6.5e-4 -0.088315,0.008 -0.044093,-6.5e-4 -0.079237,-0.01 l -0.097003,-0.001 q -0.1234589,-0.002 -0.1932279,-0.0558 -0.06108,-0.045 -0.06886,-0.11568 -0.00765,-0.0795 -0.00622,-0.17649 l 0.00792,-0.53793 q 0.00104,-0.0705 0.00208,-0.1411 0.00104,-0.0705 0.019454,-0.1232 0.04578,-0.11399 0.1605502,-0.12112 0.1059517,-0.007 0.255866,-0.005 l 0.9700339,0.0143 3.6949475,0.0544 0.740753,0.0109 q 0.097,0.001 0.194007,0.003 0.09713,-0.007 0.149525,0.0287 0.05239,0.0361 0.06925,0.0892 0.0082,0.0442 0.02477,0.11503 l -0.0045,0.30865 -0.0071,0.48502 q -0.0012,0.0794 -0.0023,0.15873 -10e-4,0.0705 -0.02827,0.12307 -0.04552,0.0964 -0.116848,0.14823 -0.08014,0.0517 -0.169109,0.10335 -0.124627,0.0776 -0.249254,0.1551 -0.133316,0.0686 -0.257943,0.14615 l -2.1359101,1.29162 q -0.2046426,0.12047 -0.3916483,0.2412 -0.1956944,0.11179 -0.4003371,0.23226 -0.062379,0.0432 -0.1514721,0.10362 -0.097782,0.0515 -0.09921,0.14848 0.060691,0.0715 0.1399276,0.0815 0.079366,10e-4 0.2028252,0.003 l 0.6172943,0.009 2.1076185,0.031 0.343922,0.005 q 0.04409,6.5e-4 0.08818,10e-4 0.04422,-0.008 0.08806,0.0101 l 0.097,10e-4 q 0.141096,0.002 0.202176,0.0471 0.05226,0.0449 0.05991,0.12437 0.0078,0.0707 0.0064,0.16768 l -0.0079,0.53793 q -0.001,0.0705 -0.0021,0.14109 -10e-4,0.0705 -0.01945,0.1232 -0.04578,0.11399 -0.16068,0.12994 -0.11477,0.007 -0.264685,0.005 l -1.014126,-0.0149 -3.5362142,-0.0521 -0.8201196,-0.0121 q -0.097003,-0.001 -0.2028252,-0.003 -0.1058219,-0.002 -0.1670321,-0.0377 -0.06121,-0.0362 -0.086368,-0.12476 2.596e-4,-0.0176 5.193e-4,-0.0353 -0.00843,-0.0266 -0.00817,-0.0442 z" />
        <path
           inkscape:connector-curvature="0"
           id="path5644"
           style="font-style:normal;font-variant:normal;font-weight:bold;font-stretch:normal;font-size:8.81944561px;font-family:'Alte Haas Grotesk';-inkscape-font-specification:'Alte Haas Grotesk Bold';letter-spacing:0.55297917px;fill:#ff0000;fill-opacity:1;stroke-width:0.26458332"
           d="m 8.3158799,232.74444 1.1976702,-3.31826 0.3054059,-0.84615 q 0.038924,-0.10784 0.08315,-0.2044 0.038924,-0.10784 0.104356,-0.15923 0.02557,-0.0189 0.07005,-0.0122 0.03917,-0.005 0.08364,0.002 l 0.04148,0.015 q 0.03618,0.004 0.07766,0.0187 0.04148,0.015 0.08296,0.0299 l 0.323529,0.11677 q 0.05807,0.021 0.116139,0.0419 0.05277,0.01 0.09655,0.0442 0.126054,0.0924 0.08944,0.21981 -0.03662,0.12743 -0.09949,0.30164 l -0.30542,0.84619 q -0.05988,0.16592 -0.08821,0.29634 -0.03362,0.11913 0.09243,0.21151 0.03848,0.0233 0.07466,0.0269 0.03618,0.004 0.07167,0.0352 0.04678,0.0263 0.113145,0.0502 0.06106,0.0127 0.110837,0.0306 l 0.738312,0.26648 2.389142,0.86232 0.77979,0.28145 q 0.13273,0.0479 0.226289,0.10043 0.08826,0.0412 0.0968,0.14745 -0.0044,0.0641 -0.03131,0.13872 -0.02695,0.0747 -0.0509,0.14103 l -0.203604,0.5641 q -0.03294,0.0913 -0.07117,0.17122 -0.03524,0.0717 -0.09999,0.0952 -0.08134,0.0175 -0.180884,-0.0184 -0.107843,-0.0389 -0.215686,-0.0779 l -0.829564,-0.29942 -2.306186,-0.83238 -0.705129,-0.2545 q -0.05807,-0.021 -0.116139,-0.0419 -0.06337,-0.0322 -0.119133,-0.0336 -0.04447,-0.007 -0.07466,-0.0269 -0.03019,-0.0203 -0.06936,-0.0157 -0.1559962,-0.009 -0.2121987,0.12032 -0.061504,0.11844 -0.1243816,0.29265 l -0.2784583,0.77149 q -0.032936,0.0913 -0.066559,0.21039 -0.038924,0.10784 -0.079469,0.16822 -0.04884,0.0574 -0.1105908,0.0726 -0.050461,0.01 -0.1198199,-0.006 -0.066365,-0.024 -0.1327302,-0.0479 l -0.406486,-0.14671 q -0.1078432,-0.0389 -0.1878054,-0.0772 -0.076968,-0.0465 -0.094493,-0.12787 -0.00761,-0.0309 -2.466e-4,-0.10322 0.014971,-0.0415 0.014971,-0.0415 z" />
        <path
           inkscape:connector-curvature="0"
           id="path5646"
           style="font-style:normal;font-variant:normal;font-weight:bold;font-stretch:normal;font-size:8.81944561px;font-family:'Alte Haas Grotesk';-inkscape-font-specification:'Alte Haas Grotesk Bold';letter-spacing:0.55297917px;fill:#ff0000;fill-opacity:1;stroke-width:0.26458332"
           d="m 11.101398,225.74231 0.350929,-0.6121 q 0.07457,-0.13007 0.142514,-0.21311 0.06468,-0.0951 0.193726,-0.0719 0.04703,0.007 0.09294,0.0329 0.03826,0.0219 0.07651,0.0439 l 0.267791,0.15353 0.92579,0.53078 q 0.13007,0.0746 0.294009,0.17873 0.156288,0.0998 0.275543,0.0868 0.06784,-0.0119 0.101811,-0.0535 0.03071,-0.0536 0.0811,-0.10599 l 0.842228,-1.46902 q 0.07896,-0.13772 0.162305,-0.2831 0.07569,-0.14975 0.01459,-0.25595 -0.04693,-0.0777 -0.189035,-0.14904 -0.142108,-0.0713 -0.249224,-0.13273 l -0.994651,-0.57025 q -0.114768,-0.0658 -0.272178,-0.14588 -0.153023,-0.0877 -0.183526,-0.17639 -0.0251,-0.0449 -9.19e-4,-0.12252 0.02856,-0.0853 0.0812,-0.1771 0.04499,-0.0962 0.105279,-0.18362 0.05264,-0.0918 0.09212,-0.16068 0.07457,-0.13007 0.153531,-0.26779 0.07569,-0.14976 0.176383,-0.18353 0.06896,-0.0316 0.160776,0.021 0.08416,0.0483 0.168326,0.0965 l 0.749814,0.42989 3.129325,1.79412 0.833977,0.47814 q 0.09181,0.0526 0.191279,0.10967 0.09946,0.057 0.107015,0.13252 0.02173,0.10395 -0.066,0.25697 -0.091,0.14099 -0.165569,0.27106 -0.03948,0.0689 -0.08447,0.16506 -0.04825,0.0842 -0.100892,0.17598 -0.0559,0.0798 -0.107421,0.1519 -0.05478,0.0601 -0.106198,0.0611 -0.04376,0.005 -0.121398,-0.0188 -0.0809,-0.0362 -0.161796,-0.0724 -0.08416,-0.0483 -0.160675,-0.0921 -0.07978,-0.0559 -0.140985,-0.091 l -1.109419,-0.63606 -0.221884,-0.12721 q -0.0306,-0.0175 -0.06121,-0.0351 -0.02622,-0.0252 -0.06121,-0.0351 l -0.07651,-0.0439 q -0.02734,-0.006 -0.05029,-0.0187 -0.02295,-0.0132 -0.05029,-0.0187 -0.137823,-0.008 -0.221168,0.13752 -0.08335,0.14537 -0.171078,0.29839 l -0.864162,1.50728 q -0.01979,0.07 -0.02642,0.11701 -0.01428,0.0427 0.01408,0.0996 0.02948,0.0372 0.09722,0.0964 l 0.07651,0.0439 q 0.03387,0.0296 0.08743,0.0603 0.05029,0.0187 0.08855,0.0406 l 0.336651,0.19301 1.055861,0.60536 q 0.114767,0.0658 0.244837,0.14037 0.13007,0.0746 0.17261,0.15996 0.0251,0.0449 -0.0035,0.13017 -0.03183,0.0732 -0.07682,0.16945 -0.04825,0.0842 -0.100892,0.17597 -0.06029,0.0874 -0.09977,0.15629 -0.06141,0.10712 -0.141493,0.26453 -0.08773,0.15302 -0.168732,0.18791 -0.081,0.0349 -0.184852,-0.0145 -0.103852,-0.0494 -0.210968,-0.11078 l -0.879884,-0.50446 -3.060465,-1.75465 -0.711558,-0.40795 q -0.08416,-0.0482 -0.175976,-0.10089 -0.09181,-0.0526 -0.127826,-0.11395 -0.03601,-0.0613 -0.0151,-0.15099 0.0088,-0.0153 0.01755,-0.0306 0.0055,-0.0273 0.01428,-0.0426 z" />
        <path
           inkscape:connector-curvature="0"
           id="path5648"
           style="font-style:normal;font-variant:normal;font-weight:bold;font-stretch:normal;font-size:8.81944561px;font-family:'Alte Haas Grotesk';-inkscape-font-specification:'Alte Haas Grotesk Bold';letter-spacing:0.55297917px;fill:#ff0000;fill-opacity:1;stroke-width:0.26458332"
           d="m 15.465599,218.80935 2.122472,-2.52488 0.49373,-0.58734 q 0.0681,-0.081 0.137278,-0.1496 0.06918,-0.0686 0.144809,-0.0626 0.0316,0.004 0.05861,0.0262 0.03268,0.0159 0.07103,0.0251 l 0.07426,0.0624 q 0.05293,0.033 0.101265,0.0851 0.05401,0.0454 0.101266,0.0851 0.05401,0.0454 0.108016,0.0908 0.05293,0.033 0.09451,0.0795 0.02808,0.0351 0.09559,0.0919 0.06399,0.0884 0.05126,0.15832 -0.007,0.0632 -0.05812,0.12396 -0.05108,0.0608 -0.107827,0.12827 l -0.391579,0.46582 -1.027185,1.22194 q -0.0454,0.054 -0.107826,0.12827 -0.0635,0.0618 -0.119177,0.14177 -0.05675,0.0675 -0.09432,0.13962 -0.04432,0.0664 -0.04677,0.11046 -0.006,0.0756 0.05019,0.14589 0.05508,0.0578 0.136096,0.12592 l 0.384808,0.32348 0.19578,0.16458 q 0.06536,0.0319 0.117215,0.0524 0.0451,0.0149 0.09373,-0.002 0.06106,-0.0178 0.113206,-0.0661 0.0454,-0.054 0.09648,-0.11477 l 0.306453,-0.36455 0.97611,-1.16118 q 0.03973,-0.0473 0.09648,-0.11477 0.05567,-0.0799 0.119177,-0.14177 0.05675,-0.0675 0.108902,-0.11584 0.05783,-0.0551 0.10078,-0.0651 0.04863,-0.0167 0.120737,0.0208 0.07211,0.0376 0.146371,0.1 0.07318,0.05 0.141771,0.11917 0.07426,0.0624 0.12827,0.10783 0.04726,0.0397 0.09451,0.0795 0.04726,0.0397 0.06966,0.0816 0.04266,0.0589 0.04236,0.12779 -0.0081,0.0508 -0.05245,0.11721 -0.03865,0.0597 -0.101076,0.13395 -0.05675,0.0675 -0.119176,0.14177 -0.0635,0.0618 -0.103227,0.10909 l -1.106636,1.31645 q -0.0681,0.081 -0.130527,0.15527 -0.06918,0.0686 -0.112425,0.14745 -0.04432,0.0664 -0.05029,0.14207 -0.007,0.0632 0.03669,0.13453 0.02808,0.0351 0.06859,0.0692 0.03376,0.0284 0.06751,0.0568 l 0.256539,0.21565 0.378057,0.3178 q 0.08101,0.0681 0.154197,0.1181 0.07211,0.0376 0.14559,0.0187 0.03728,-0.003 0.06673,-0.0246 0.02837,-0.0338 0.07025,-0.0562 l 0.05675,-0.0675 q 0.03513,-0.0281 0.06918,-0.0686 0.0273,-0.0462 0.05567,-0.0799 l 0.238353,-0.28355 1.066911,-1.26919 0.300778,-0.3578 q 0.0454,-0.054 0.08513,-0.10127 0.0454,-0.054 0.0997,-0.0775 0.06565,-0.037 0.136687,-0.0118 0.04511,0.0149 0.09236,0.0546 0.05293,0.033 0.106941,0.0784 l 0.310547,0.26105 q 0.08101,0.0681 0.149598,0.13728 0.06184,0.0635 0.05019,0.14589 -2.95e-4,0.0689 -0.05705,0.13639 -0.05108,0.0608 -0.113501,0.13502 l -0.425629,0.50632 -1.679818,1.99831 -0.448329,0.53333 q -0.07945,0.0945 -0.148628,0.1631 -0.07025,0.0562 -0.152636,0.0445 -0.06321,-0.007 -0.123966,-0.0581 -0.06751,-0.0567 -0.128269,-0.10782 l -0.486074,-0.40861 -1.836278,-1.54361 -1.471724,-1.23717 -0.418563,-0.35185 q -0.06076,-0.0511 -0.121519,-0.10215 -0.06076,-0.0511 -0.07181,-0.10646 -0.02456,-0.0667 0.01762,-0.15801 0.0046,-0.0192 0.0227,-0.027 0.01135,-0.0135 0.01595,-0.0327 z" />
        <path
           inkscape:connector-curvature="0"
           id="path5650"
           style="font-style:normal;font-variant:normal;font-weight:bold;font-stretch:normal;font-size:8.81944561px;font-family:'Alte Haas Grotesk';-inkscape-font-specification:'Alte Haas Grotesk Bold';letter-spacing:0.55297917px;fill:#ff0000;fill-opacity:1;stroke-width:0.26458332"
           d="m 32.274929,208.6002 q 0.04206,0.0366 0.109224,0.15061 0.07028,0.1019 0.08195,0.15645 l 0.05821,0.0988 q 0.02958,0.0849 0.07883,0.16852 0.04925,0.0836 0.08331,0.17612 0.01615,0.0621 0.03989,0.1198 0.02374,0.0577 0.03989,0.11981 0.0426,0.15916 0.08073,0.31072 0.04572,0.14708 0.06418,0.3 0.08548,0.66621 -0.0916,1.25168 -0.18155,0.57788 -0.639488,1.10365 -0.06567,0.0796 -0.140298,0.14409 -0.07463,0.0644 -0.149254,0.1289 -0.02904,0.0376 -0.07463,0.0644 -0.03799,0.0224 -0.07151,0.0524 l -0.237313,0.17055 q -0.02592,0.0255 -0.106376,0.0627 -0.07598,0.0448 -0.103256,0.0506 -0.04247,0.0148 -0.08046,0.0372 -0.02592,0.0255 -0.06838,0.0403 l -0.08358,0.0493 q -0.06974,0.0206 -0.127407,0.0444 -0.05319,0.0313 -0.12293,0.052 -0.06974,0.0206 -0.139483,0.0412 -0.06527,0.0282 -0.135006,0.0488 -0.101492,0.0189 -0.210582,0.0422 -0.101491,0.0189 -0.207461,0.0301 -0.572314,0.0711 -1.083977,-0.0676 -0.508541,-0.15075 -0.974747,-0.49023 -0.108275,-0.0795 -0.205831,-0.17558 -0.102033,-0.10366 -0.211665,-0.20285 -0.03758,-0.029 -0.05102,-0.0518 -0.01791,-0.0304 -0.04342,-0.0563 -0.04654,-0.0442 -0.08548,-0.0929 -0.04342,-0.0563 -0.09444,-0.10814 -0.02999,-0.0335 -0.0479,-0.0639 -0.01479,-0.0425 -0.0479,-0.0639 -0.03446,-0.0411 -0.05373,-0.0912 -0.02374,-0.0577 -0.05821,-0.0988 -0.03758,-0.029 -0.08236,-0.10502 -0.04925,-0.0836 -0.05644,-0.13052 -0.01479,-0.0425 -0.0403,-0.0684 -0.02999,-0.0335 -0.04477,-0.076 l -0.02687,-0.0456 q -0.01615,-0.0622 -0.05061,-0.10326 -0.03134,-0.0532 -0.04301,-0.10773 -0.0072,-0.047 -0.02958,-0.0849 -0.02686,-0.0456 -0.03405,-0.0925 -0.03813,-0.15156 -0.08697,-0.28656 -0.05332,-0.14261 -0.07937,-0.29104 -0.01533,-0.165 -0.03826,-0.32551 -0.02293,-0.16051 -0.01411,-0.31926 0.01303,-0.49905 0.166085,-0.91682 0.153055,-0.41777 0.475579,-0.84327 0.07639,-0.0962 0.169336,-0.18168 0.100542,-0.0899 0.189009,-0.18303 0.02904,-0.0376 0.05943,-0.0555 0.03799,-0.0224 0.07151,-0.0524 l 0.214517,-0.15712 q 0.01072,-0.0165 0.03799,-0.0224 0.03487,-0.0103 0.04559,-0.0269 0.530526,-0.3331 1.001757,-0.43676 0.466753,-0.11126 0.908132,-0.0745 0.139076,0.0102 0.299183,0.0387 0.155629,0.0209 0.277744,0.0718 0.06038,0.0156 0.125235,0.0388 0.06038,0.0156 0.11316,0.0357 0.155222,0.0723 0.314921,0.15224 0.155222,0.0723 0.301081,0.18087 0.108275,0.0795 0.196875,0.16038 0.0962,0.0764 0.201354,0.16798 0.06757,0.0625 0.132019,0.13718 0.05997,0.067 0.132019,0.13718 0.04654,0.0442 0.07788,0.0974 0.02687,0.0456 0.06893,0.0822 0.04206,0.0366 0.06581,0.0943 0.02687,0.0456 0.05685,0.0791 z m -0.989686,1.01315 q -0.0072,-0.047 -0.04749,-0.11534 -0.04477,-0.076 -0.08236,-0.10502 l -0.07612,-0.12917 q -0.02551,-0.0259 -0.03894,-0.0487 -0.01031,-0.0349 -0.04342,-0.0563 -0.05102,-0.0518 -0.08996,-0.10054 -0.03582,-0.0608 -0.08236,-0.10502 -0.02239,-0.038 -0.06445,-0.0746 -0.07205,-0.0702 -0.144095,-0.14029 -0.07205,-0.0701 -0.159291,-0.13135 -0.395516,-0.28901 -0.853448,-0.3365 -0.454812,-0.0596 -1.017088,0.27176 -0.01072,0.0166 -0.03351,0.03 -0.01968,0.001 -0.03039,0.0179 -0.02592,0.0255 -0.05631,0.0434 -0.03487,0.0103 -0.06391,0.0479 -0.07463,0.0644 -0.144776,0.1365 -0.06703,0.06 -0.117504,0.13066 -0.238535,0.32483 -0.285213,0.67991 -0.03908,0.35061 0.04843,0.7597 0.02646,0.097 0.06051,0.18955 0.03718,0.0805 0.06363,0.17747 0.01031,0.0349 0.02822,0.0653 0.01343,0.0228 0.02374,0.0577 0.0072,0.0469 0.04165,0.0881 0.03446,0.0411 0.04925,0.0836 0.0072,0.0469 0.06228,0.1578 0.05821,0.0988 0.09579,0.12782 l 0.04925,0.0836 q 0.02551,0.0259 0.0479,0.0639 0.01791,0.0304 0.04342,0.0563 0.01791,0.0304 0.03582,0.0608 0.02103,0.0183 0.03894,0.0487 0.07205,0.0702 0.128898,0.14926 0.06445,0.0746 0.139617,0.1327 0.226862,0.19389 0.473805,0.335 0.242466,0.13352 0.500943,0.15523 0.06038,0.0156 0.111803,0.016 0.05902,-0.004 0.118045,-0.008 0.114924,0.004 0.224014,-0.0194 0.116689,-0.0278 0.240975,-0.0601 0.04695,-0.007 0.07734,-0.0251 0.03352,-0.03 0.07598,-0.0448 0.05454,-0.0117 0.100135,-0.0385 0.04559,-0.0269 0.09878,-0.0582 l 0.06079,-0.0358 q 0.03351,-0.03 0.06838,-0.0403 0.03039,-0.0179 0.05943,-0.0555 0.06703,-0.06 0.138534,-0.11235 0.06703,-0.06 0.117503,-0.13066 0.250611,-0.3217 0.312079,-0.63432 0.06907,-0.31709 0.0057,-0.71994 -0.01126,-0.10596 -0.05427,-0.2137 -0.03541,-0.11221 -0.06323,-0.2289 l -0.08467,-0.19579 q -0.01031,-0.0349 -0.02822,-0.0653 -0.02239,-0.038 -0.04477,-0.076 z" />
        <path
           inkscape:connector-curvature="0"
           id="path5652"
           style="font-style:normal;font-variant:normal;font-weight:bold;font-stretch:normal;font-size:8.81944561px;font-family:'Alte Haas Grotesk';-inkscape-font-specification:'Alte Haas Grotesk Bold';letter-spacing:0.55297917px;fill:#ff0000;fill-opacity:1;stroke-width:0.26458332"
           d="m 33.524529,204.87601 0.673829,-0.23725 q 0.09151,-0.0322 0.174696,-0.0615 0.08858,-0.0405 0.166846,-0.0307 0.0949,0.004 0.159931,0.0559 0.07334,0.049 0.138371,0.10088 l 0.466432,0.36873 q 0.458112,0.37167 0.916225,0.74333 0.463502,0.36041 0.921615,0.73207 0.220503,0.17482 0.435617,0.36088 0.220503,0.17482 0.446396,0.33839 0.05085,0.0382 0.09338,0.0793 0.05085,0.0382 0.115408,0.0622 0.02249,0.0108 0.05331,0.0186 0.03081,0.008 0.04991,-0.0176 0.05237,-0.0371 0.03187,-0.0954 -0.0205,-0.0582 -0.0273,-0.13064 -0.01218,-0.0612 -0.04394,-0.12479 -0.02636,-0.0749 -0.04979,-0.14142 l -0.184526,-0.52409 -0.679523,-1.92998 -0.111302,-0.31611 q -0.01464,-0.0416 -0.03761,-0.0803 -0.01465,-0.0416 -0.01804,-0.0778 l -0.03222,-0.0915 q -0.04101,-0.11647 -0.01452,-0.20059 0.02109,-0.0729 0.08471,-0.10463 0.07194,-0.0347 0.163449,-0.0669 l 0.507451,-0.17866 q 0.06655,-0.0234 0.133102,-0.0469 0.06655,-0.0234 0.122322,-0.0244 0.122791,0.004 0.169186,0.10874 0.04347,0.0969 0.09326,0.23832 l 0.322188,0.91507 1.227243,3.48561 0.246034,0.69879 q 0.03222,0.0915 0.06444,0.18301 0.04054,0.0886 0.02484,0.15021 -0.0157,0.0616 -0.05976,0.0958 -0.03867,0.023 -0.09936,0.063 l -0.29116,0.10252 -0.457538,0.16109 q -0.07487,0.0264 -0.14974,0.0527 -0.06655,0.0234 -0.125251,0.0161 -0.106153,-0.009 -0.179498,-0.0584 -0.07627,-0.0573 -0.155477,-0.12291 -0.115876,-0.0901 -0.231751,-0.18021 -0.110486,-0.10135 -0.226362,-0.19145 l -1.950787,-1.55718 q -0.18383,-0.15033 -0.361803,-0.28402 -0.172583,-0.14494 -0.356414,-0.29527 -0.0621,-0.0436 -0.149619,-0.10627 -0.08213,-0.0739 -0.17364,-0.0417 -0.04605,0.0817 -0.02801,0.15946 0.02636,0.0749 0.06737,0.19134 l 0.205029,0.58232 0.700027,1.98821 0.11423,0.32444 q 0.01465,0.0416 0.02929,0.0832 0.02296,0.0387 0.02097,0.0861 l 0.03222,0.0915 q 0.04686,0.1331 0.02577,0.20598 -0.02402,0.0646 -0.09596,0.0992 -0.06362,0.0317 -0.155129,0.064 l -0.507452,0.17867 q -0.06655,0.0234 -0.133102,0.0469 -0.06655,0.0234 -0.122322,0.0244 -0.12279,-0.004 -0.177505,-0.10581 -0.0464,-0.10521 -0.09619,-0.24663 l -0.336833,-0.95668 -1.174521,-3.33586 -0.272396,-0.77366 q -0.03222,-0.0915 -0.06737,-0.19133 -0.03515,-0.0998 -0.02237,-0.16978 0.01277,-0.0699 0.08717,-0.12419 0.01664,-0.006 0.03328,-0.0117 0.02203,-0.0171 0.03867,-0.023 z" />
        <path
           inkscape:connector-curvature="0"
           id="path5654"
           style="font-style:normal;font-variant:normal;font-weight:bold;font-stretch:normal;font-size:8.81944561px;font-family:'Alte Haas Grotesk';-inkscape-font-specification:'Alte Haas Grotesk Bold';letter-spacing:0.55297917px;fill:#ff0000;fill-opacity:1;stroke-width:0.26458332"
           d="m 41.354588,202.47608 3.256069,-0.5272 0.757427,-0.12263 q 0.104473,-0.0169 0.20165,-0.0237 0.09718,-0.007 0.150574,0.0471 0.02164,0.0233 0.02728,0.0581 0.01434,0.0334 0.03739,0.0654 l 0.01551,0.0958 q 0.01857,0.0595 0.02114,0.13059 0.01128,0.0696 0.02114,0.13059 0.01128,0.0696 0.02255,0.13929 0.01857,0.0595 0.01974,0.12189 -0.0017,0.0449 0.01244,0.132 -0.0092,0.1087 -0.06451,0.15339 -0.0466,0.0433 -0.124952,0.056 -0.07836,0.0127 -0.165415,0.0268 l -0.600719,0.0973 -1.575798,0.25514 q -0.06965,0.0113 -0.165415,0.0268 -0.08847,0.005 -0.182827,0.0296 -0.08706,0.0141 -0.162596,0.0442 -0.07695,0.0214 -0.107541,0.0531 -0.05389,0.0534 -0.05721,0.14328 0.004,0.0798 0.0209,0.18423 l 0.08035,0.49625 0.04088,0.25248 q 0.02869,0.0668 0.05456,0.11624 0.02446,0.0407 0.07222,0.0598 0.05788,0.0264 0.128933,0.0238 0.06965,-0.0113 0.148004,-0.024 l 0.470127,-0.0761 1.497443,-0.24246 q 0.06094,-0.01 0.148003,-0.024 0.09436,-0.0242 0.182828,-0.0296 0.08706,-0.0141 0.158119,-0.0167 0.07976,-0.004 0.118817,0.0165 0.04776,0.0191 0.07786,0.0946 0.0301,0.0755 0.04561,0.1713 0.0228,0.0857 0.0296,0.18283 0.01551,0.0958 0.02678,0.16542 0.0099,0.0609 0.01973,0.12188 0.0099,0.0609 -4.96e-4,0.10729 -0.0061,0.0725 -0.05132,0.12446 -0.0393,0.0332 -0.116246,0.0546 -0.06824,0.02 -0.164006,0.0355 -0.08706,0.0141 -0.182827,0.0296 -0.08847,0.005 -0.149413,0.0153 l -1.697683,0.27487 q -0.104472,0.0169 -0.200239,0.0324 -0.09718,0.007 -0.181418,0.0383 -0.07694,0.0214 -0.130839,0.0748 -0.0466,0.0433 -0.06003,0.12587 -0.0017,0.0449 0.0068,0.0972 0.007,0.0435 0.0141,0.0871 l 0.05357,0.33083 0.07894,0.48754 q 0.01692,0.10447 0.03972,0.19012 0.0301,0.0755 0.09809,0.1092 0.03035,0.0219 0.06658,0.025 0.04353,-0.007 0.08988,0.003 l 0.08706,-0.0141 q 0.04494,0.002 0.09718,-0.007 0.05083,-0.0172 0.09436,-0.0242 l 0.365655,-0.0592 1.63674,-0.26501 0.461422,-0.0747 q 0.06965,-0.0113 0.130591,-0.0211 0.06965,-0.0113 0.126114,0.006 0.07388,0.0148 0.111272,0.0803 0.02446,0.0407 0.03433,0.10165 0.01857,0.0595 0.02985,0.12918 l 0.06484,0.40048 q 0.01692,0.10448 0.02372,0.20165 0.0054,0.0885 -0.05721,0.14328 -0.04519,0.052 -0.132249,0.0661 -0.07835,0.0127 -0.174121,0.0282 l -0.652955,0.10572 -2.576995,0.41725 -0.68778,0.11136 q -0.121885,0.0197 -0.219061,0.0265 -0.08988,-0.003 -0.144687,-0.0659 -0.04328,-0.0466 -0.05597,-0.12496 -0.0141,-0.0871 -0.02678,-0.16541 l -0.101493,-0.62684 -0.383418,-2.36805 -0.307298,-1.89792 -0.0874,-0.53978 q -0.01269,-0.0784 -0.02537,-0.1567 -0.01269,-0.0784 0.01509,-0.12753 0.02496,-0.0666 0.116494,-0.1082 0.016,-0.0115 0.03482,-0.006 0.01741,-0.003 0.03341,-0.0144 z" />
        <path
           inkscape:connector-curvature="0"
           id="path5656"
           style="font-style:normal;font-variant:normal;font-weight:bold;font-stretch:normal;font-size:8.81944561px;font-family:'Alte Haas Grotesk';-inkscape-font-specification:'Alte Haas Grotesk Bold';letter-spacing:0.55297917px;fill:#ff0000;fill-opacity:1;stroke-width:0.26458332"
           d="m 59.86003,206.94834 q 9.11e-4,0.0986 -0.04343,0.25205 -0.03564,0.15495 -0.068,0.23887 -0.03236,0.0839 -0.06322,0.15915 -0.03086,0.0752 -0.06891,0.14026 -0.257391,0.40313 -0.687731,0.61536 -0.165723,0.0788 -0.353028,0.12712 -0.177116,0.0411 -0.378808,0.069 -0.101596,0.0183 -0.208887,0.0177 -0.105794,-0.009 -0.204394,-0.008 -0.04496,10e-4 -0.08841,-0.006 -0.03477,-0.006 -0.07972,-0.005 -0.03626,0.003 -0.07822,-0.0135 -0.03327,-0.0147 -0.07972,-0.005 -0.03626,0.003 -0.07972,-0.005 -0.03327,-0.0147 -0.07672,-0.0222 l -2.537887,-0.43726 q -0.147753,-0.0255 -0.250552,-0.0521 -0.09261,-0.0339 -0.118098,-0.14564 -0.0141,-0.074 0.0099,-0.21309 0.03415,-0.14625 0.05062,-0.24186 l 0.879,-5.10185 q 0.01797,-0.10429 0.02874,-0.21878 0.02097,-0.12168 0.0764,-0.18372 0.04525,-0.0549 0.145346,-0.0644 0.01888,-0.006 0.03477,0.006 0.01738,0.003 0.03626,-0.003 l 2.590035,0.44624 q 0.06084,0.0105 0.121679,0.021 0.06234,0.002 0.112988,0.0195 0.04046,0.0249 0.08542,0.0237 0.04495,-0.001 0.08691,0.015 l 0.05215,0.009 q 0.04915,0.0264 0.101302,0.0353 0.06234,0.002 0.120182,0.0297 0.06654,0.0294 0.125878,0.0485 0.06803,0.0207 0.13457,0.05 0.154655,0.0893 0.291926,0.17558 0.138769,0.0776 0.245474,0.18549 0.152864,0.15162 0.234406,0.35361 0.08154,0.20199 0.110641,0.44863 0.0069,0.0638 -0.0036,0.12468 -0.0018,0.0623 0.0036,0.13486 0.0027,0.0363 -0.01198,0.0695 -0.006,0.0348 -0.0033,0.071 0.0042,0.0276 -0.01198,0.0695 -0.006,0.0348 -0.01768,0.0507 l -0.01348,0.0782 q -0.0045,0.0261 -0.01917,0.0593 -0.006,0.0348 -0.009,0.0522 -0.02786,0.0578 -0.04554,0.10849 -0.0075,0.0435 -0.03236,0.0839 -0.166896,0.29342 -0.383857,0.46188 -0.07132,0.0504 -0.14834,0.0818 -0.07702,0.0315 -0.141146,0.092 -0.02038,0.0144 -0.05244,0.0447 -0.02188,0.0231 -0.01198,0.0695 0.0054,0.0725 0.09202,0.14115 0.08812,0.0599 0.150162,0.11536 0.207714,0.19688 0.319529,0.43093 0.104621,0.22386 0.136423,0.50677 0.01409,0.074 0.0093,0.15374 -0.0033,0.071 0.0021,0.14356 z m -3.24467,-3.7629 q -0.05394,0.0533 -0.07041,0.14895 -0.01497,0.0869 -0.03145,0.18252 l -0.08086,0.46934 q -0.01048,0.0608 -0.03115,0.12887 -0.01048,0.0608 -0.0093,0.1058 l -0.01497,0.0869 q 0.0084,0.0551 0.0096,0.1001 0.0027,0.0363 0.01409,0.074 0.02728,0.0494 0.09381,0.0788 0.07523,0.0309 0.160644,0.0545 0.0956,0.0165 0.19121,0.0329 0.0971,0.008 0.175326,0.0213 0.130371,0.0225 0.267935,0.0551 0.147754,0.0255 0.286816,0.0494 0.147754,0.0255 0.279622,0.0392 0.133366,0.005 0.234961,-0.0132 0.275716,-0.042 0.443523,-0.23682 0.08031,-0.1025 0.129136,-0.28203 0.0683,-0.29251 -0.0075,-0.47561 -0.07435,-0.1918 -0.257777,-0.32185 -0.04915,-0.0264 -0.108496,-0.0455 -0.05785,-0.0279 -0.124381,-0.0572 -0.03327,-0.0147 -0.1028,-0.0267 -0.0998,-0.044 -0.240364,-0.0593 -0.13037,-0.0225 -0.25205,-0.0434 l -0.738768,-0.12729 q -0.01888,0.006 -0.04495,0.001 -0.01738,-0.003 -0.03626,0.003 -0.09141,0.0111 -0.135156,0.0573 z m 1.873545,3.66986 q 0.03835,-0.11868 0.02754,-0.26374 -0.0021,-0.14355 -0.0249,-0.21907 -0.06777,-0.33386 -0.403155,-0.51693 -0.140266,-0.0689 -0.321288,-0.10905 -0.17233,-0.0386 -0.363541,-0.0716 l -0.982127,-0.16921 q -0.02038,0.0144 -0.03776,0.0114 -0.0072,-0.0102 -0.02458,-0.0132 -0.108789,0.008 -0.154037,0.063 -0.05544,0.062 -0.0749,0.17503 -0.01797,0.1043 -0.03444,0.1999 l -0.133273,0.77354 q -0.01797,0.10429 -0.03744,0.21728 -0.0093,0.10579 0.0237,0.17412 0.02728,0.0495 0.101008,0.089 0.07523,0.0309 0.169336,0.056 0.104297,0.018 0.208593,0.0359 0.105794,0.009 0.184017,0.0228 0.260742,0.0449 0.502603,0.0955 0.243359,0.0419 0.465136,0.0533 0.223275,0.003 0.400391,-0.0384 0.187305,-0.0483 0.318555,-0.18675 0.05544,-0.062 0.09648,-0.14446 0.04255,-0.0911 0.08509,-0.18223 z" />
        <path
           inkscape:connector-curvature="0"
           id="path5658"
           style="font-style:normal;font-variant:normal;font-weight:bold;font-stretch:normal;font-size:8.81944561px;font-family:'Alte Haas Grotesk';-inkscape-font-specification:'Alte Haas Grotesk Bold';letter-spacing:0.55297917px;fill:#ff0000;fill-opacity:1;stroke-width:0.26458332"
           d="m 63.039793,203.45188 0.72413,0.22565 q 0.09262,0.0289 0.174199,0.0635 0.0842,0.0262 0.107936,0.0983 0.02373,0.0721 -0.0051,0.16468 -0.02044,0.0952 -0.05455,0.20471 l -0.228267,0.73255 -0.910446,2.92178 -0.430297,1.38091 q -0.03411,0.10946 -0.07609,0.24418 -0.03356,0.13734 -0.09665,0.19159 -0.05205,0.0484 -0.180424,0.0454 -0.06419,-0.002 -0.128925,-0.0309 -0.06474,-0.0294 -0.132099,-0.0504 l -0.496787,-0.1548 q -0.09262,-0.0289 -0.174199,-0.0635 -0.07316,-0.032 -0.110559,-0.0899 -0.02898,-0.0552 -0.01116,-0.14205 0.01782,-0.0868 0.04668,-0.17945 l 0.228267,-0.73255 0.957674,-3.07334 0.383069,-1.22934 q 0.03673,-0.11788 0.07816,-0.28049 0.04985,-0.15998 0.112942,-0.21422 0.04942,-0.04 0.1357,-0.0501 0.02526,0.008 0.0421,0.0131 0.02788,-5.4e-4 0.04472,0.005 z" />
        <path
           inkscape:connector-curvature="0"
           id="path5660"
           style="font-style:normal;font-variant:normal;font-weight:bold;font-stretch:normal;font-size:8.81944561px;font-family:'Alte Haas Grotesk';-inkscape-font-specification:'Alte Haas Grotesk Bold';letter-spacing:0.55297917px;fill:#ff0000;fill-opacity:1;stroke-width:0.26458332"
           d="m 69.171439,205.62338 q 0.813067,0.36427 1.212356,0.92333 0.399288,0.55907 0.476487,1.18066 0.03107,0.32675 -0.03133,0.7069 -0.0104,0.0634 -0.04384,0.15485 -0.02967,0.0835 -0.08837,0.10458 -0.06623,0.037 -0.141775,0.0111 -0.07554,-0.0259 -0.163277,-0.0673 l -0.518415,-0.24469 q -0.08773,-0.0414 -0.167489,-0.0791 -0.06802,-0.0419 -0.09705,-0.10432 -0.04919,-0.0817 -0.03969,-0.18453 0.01748,-0.099 0.01525,-0.1976 -0.01908,-0.14554 -0.05366,-0.2789 -0.03082,-0.14132 -0.10483,-0.27379 -0.102597,-0.17521 -0.287822,-0.34065 -0.03235,-0.0348 -0.0802,-0.0574 -0.04409,-0.0306 -0.0802,-0.0574 -0.02016,-0.0193 -0.06802,-0.0419 -0.08818,-0.0611 -0.239268,-0.11294 -0.147326,-0.0598 -0.234612,-0.0815 -0.06336,-0.0104 -0.114976,-0.025 -0.05162,-0.0146 -0.110766,-0.0133 -0.248777,-0.0101 -0.472734,0.0304 -0.215981,0.0443 -0.4222,0.17132 -0.183186,0.0988 -0.329812,0.24418 -0.146626,0.14534 -0.296569,0.31838 -0.06534,0.0764 -0.114724,0.16041 -0.04939,0.084 -0.106747,0.16417 l -0.04894,0.10368 q -0.03854,0.0403 -0.06489,0.0961 -0.01838,0.0596 -0.04473,0.11543 -0.064,0.13558 -0.12002,0.27493 -0.05602,0.13935 -0.08059,0.27405 -0.0071,0.0357 -0.01838,0.0596 -0.01129,0.0239 -0.01838,0.0596 -0.08033,0.45946 -0.02444,0.83694 0.05965,0.36949 0.343266,0.69841 0.05672,0.0658 0.117209,0.12359 0.06846,0.0616 0.144901,0.12691 0.04409,0.0306 0.08397,0.0494 0.05162,0.0146 0.08397,0.0494 0.04032,0.0385 0.112105,0.0724 0.07178,0.0339 0.135139,0.0443 0.04364,0.0109 0.07178,0.0339 0.0319,0.0151 0.06757,0.0221 0.04364,0.0109 0.06381,0.0301 0.0319,0.0151 0.07133,0.0142 0.126717,0.0208 0.233718,0.042 0.110766,0.0133 0.221085,0.007 0.255859,-0.0255 0.447021,-0.12059 0.194926,-0.10304 0.39183,-0.29292 0.07331,-0.0727 0.137757,-0.18855 0.07242,-0.1121 0.0073,-0.20137 -0.03279,-0.0545 -0.112552,-0.0921 -0.07178,-0.0339 -0.143561,-0.0678 l -0.406757,-0.192 q -0.04785,-0.0226 -0.107447,-0.041 -0.05583,-0.0264 -0.09615,-0.0649 l -0.07178,-0.0339 q -0.02814,-0.023 -0.06004,-0.0381 -0.02814,-0.023 -0.04454,-0.0503 -0.02482,-0.0507 -0.01065,-0.12206 0.01417,-0.0713 0.04007,-0.14688 0.03765,-0.0798 0.07529,-0.15952 0.04939,-0.084 0.08327,-0.15574 0.03012,-0.0638 0.05647,-0.11964 0.03433,-0.0521 0.0691,-0.0844 0.06578,-0.0567 0.132907,-0.0543 0.05538,0.007 0.08728,0.0217 l 0.08773,0.0414 q 0.02769,0.003 0.05959,0.0184 0.03988,0.0188 0.07178,0.0339 l 0.231293,0.10918 1.164441,0.54962 q 0.135585,0.064 0.303073,0.14306 0.175464,0.0828 0.197412,0.18095 0.0098,0.0826 -0.03918,0.18631 -0.04894,0.10369 -0.09411,0.19939 l -0.391517,0.82947 -0.617391,1.308 q -0.07153,0.15154 -0.147265,0.29133 -0.064,0.13559 -0.186504,0.12653 -0.05915,0.001 -0.130928,-0.0325 -0.06381,-0.0301 -0.12761,-0.0602 -0.159512,-0.0753 -0.275382,-0.13973 -0.104129,-0.0687 -0.09928,-0.2029 0.002,-0.0868 0.02744,-0.1821 0.02546,-0.0953 0.0157,-0.17789 -0.0084,-0.0235 -0.02482,-0.0507 -0.01263,-0.0352 -0.05628,-0.0461 -0.07133,-0.0142 -0.141776,0.0111 -0.06247,0.029 -0.129142,0.0463 -0.109873,0.0262 -0.208005,0.0481 -0.09437,0.014 -0.208452,0.0284 -0.1338,0.0149 -0.272257,-0.002 -0.130482,-0.0128 -0.268939,-0.0294 -0.04741,-0.003 -0.09526,-0.0255 -0.04364,-0.0108 -0.08729,-0.0217 -0.07133,-0.0142 -0.143114,-0.0481 -0.07178,-0.0339 -0.151091,-0.0518 -0.03567,-0.007 -0.09571,-0.0452 -0.05583,-0.0264 -0.07599,-0.0456 l -0.07976,-0.0377 q -0.03611,-0.0268 -0.07599,-0.0456 -0.0319,-0.0151 -0.06802,-0.0419 l -0.06381,-0.0301 q -0.05627,-0.0461 -0.116316,-0.0842 -0.06004,-0.0381 -0.116316,-0.0842 -0.0483,-0.0423 -0.0966,-0.0846 -0.05206,-0.0343 -0.100365,-0.0766 -0.205387,-0.18472 -0.343651,-0.36701 -0.35386,-0.46936 -0.490846,-0.94362 -0.133221,-0.48225 -0.103419,-1.08259 0.0049,-0.13424 0.03363,-0.2572 0.02878,-0.12295 0.0416,-0.25343 0.01085,-0.0436 0.02214,-0.0676 0.01506,-0.0319 0.01793,-0.0793 0.0104,-0.0634 0.03675,-0.11919 0.03012,-0.0638 0.04428,-0.13514 0.0029,-0.0474 0.01417,-0.0713 0.02303,-0.0281 0.03388,-0.0718 l 0.06776,-0.14356 q 0.0029,-0.0474 0.04052,-0.12717 0.04141,-0.0877 0.07618,-0.12008 l 0.04141,-0.0877 q 0.03056,-0.0441 0.04517,-0.0957 0.02635,-0.0558 0.06113,-0.0882 0.04983,-0.0642 0.08371,-0.13603 0.03388,-0.0718 0.07995,-0.12805 0.06534,-0.0764 0.118935,-0.14867 0.05736,-0.0802 0.130674,-0.15288 0.09258,-0.0928 0.173424,-0.18146 0.09258,-0.0928 0.189376,-0.17393 0.100558,-0.0891 0.213302,-0.16264 0.116509,-0.0815 0.225489,-0.14713 0.397381,-0.22204 0.809628,-0.31028 0.416011,-0.0962 0.921986,-0.0524 0.106555,0.002 0.217767,0.0345 0.114977,0.025 0.229954,0.05 0.04741,0.003 0.08728,0.0217 0.04785,0.0226 0.09526,0.0255 0.06336,0.0104 0.107448,0.041 0.05206,0.0343 0.115423,0.0447 0.01972,-4.5e-4 0.03988,0.0188 0.02814,0.023 0.04785,0.0226 z" />
        <path
           inkscape:connector-curvature="0"
           id="path5662"
           style="font-style:normal;font-variant:normal;font-weight:bold;font-stretch:normal;font-size:8.81944561px;font-family:'Alte Haas Grotesk';-inkscape-font-specification:'Alte Haas Grotesk Bold';letter-spacing:0.55297917px;fill:#ff0000;fill-opacity:1;stroke-width:0.26458332"
           d="m 82.424916,216.54523 q -0.0555,0.3431 -0.2358,0.64901 -0.174049,0.31213 -0.535164,0.63707 -0.149444,0.125 -0.298956,0.21258 -0.143287,0.0813 -0.28662,0.13772 -0.0374,0.0125 -0.07479,0.0251 -0.02492,0.0125 -0.06232,0.0251 -0.06857,0.0188 -0.13713,0.0377 -0.05609,0.0188 -0.124681,0.0252 -0.29925,0.0504 -0.59248,-0.0176 -0.280757,-0.0681 -0.580371,-0.21721 -0.09362,-0.0435 -0.17482,-0.11194 -0.0812,-0.0685 -0.174842,-0.12441 -0.04371,-0.0311 -0.0812,-0.0684 -0.03749,-0.0374 -0.0812,-0.0685 l -0.256152,-0.25522 -0.524799,-0.5229 q -0.08122,-0.0809 -0.174933,-0.1743 -0.08747,-0.0871 -0.174797,-0.0995 -0.106051,-0.0185 -0.2181,0.0939 -0.105824,0.10621 -0.211648,0.21242 l -0.821693,0.82469 q -0.0747,0.075 -0.161849,0.16243 -0.0809,0.0937 -0.161939,0.11255 -0.06857,0.0188 -0.180932,-0.0433 -0.05618,-0.0311 -0.09994,-0.0871 -0.04376,-0.056 -0.09374,-0.10585 l -0.362361,-0.36104 q -0.06872,-0.0685 -0.1312,-0.13073 -0.05,-0.0623 -0.05636,-0.13086 -0.0064,-0.0686 0.04964,-0.13729 0.06223,-0.075 0.130702,-0.14367 l 3.722518,-3.73607 q 0.08715,-0.0875 0.199176,-0.2124 0.118274,-0.1187 0.199311,-0.13756 0.06234,-0.0126 0.155964,0.0309 0.01872,0.006 0.02499,0.0249 0.01874,0.0187 0.03746,0.0249 l 1.805559,1.79901 q 0.05623,0.056 0.112457,0.11205 0.06245,0.0498 0.09999,0.11207 l 0.03124,0.0311 q 0.01879,0.0436 0.05627,0.081 0.03749,0.0374 0.05627,0.081 0.02501,0.0374 0.05,0.0623 0.02499,0.0249 0.04378,0.0685 0.06884,0.13084 0.137674,0.26168 0.07506,0.12459 0.112729,0.26172 0.0063,0.0561 0.02515,0.11221 0.01881,0.0561 0.02517,0.12468 0.01256,0.0499 0.0064,0.0935 0.0063,0.0436 0.01265,0.0998 l 1.36e-4,0.0748 q 2.72e-4,0.14967 -0.02445,0.27444 z m -1.708128,0.33987 q 0.08097,-0.0563 0.174321,-0.16246 0.105824,-0.10621 0.155555,-0.19361 0.09946,-0.1748 0.124159,-0.31204 0.0247,-0.13725 -0.01929,-0.31802 -0.03769,-0.1496 -0.150238,-0.31154 -0.106322,-0.16819 -0.262535,-0.33628 -0.149966,-0.16187 -0.324876,-0.3237 -0.168686,-0.16807 -0.318628,-0.31747 -0.02497,-0.0124 -0.04994,-0.0249 -0.01249,-0.0125 -0.03124,-0.0311 -0.08738,-0.0373 -0.155918,-0.006 -0.07479,0.0251 -0.16194,0.11254 -0.08092,0.0812 -0.149398,0.14995 l -0.59137,0.59352 q -0.0747,0.075 -0.168074,0.16868 -0.08715,0.0875 -0.105711,0.16858 -0.01236,0.0624 0.01895,0.13092 0.03131,0.0685 0.08756,0.13704 0.06248,0.0623 0.1312,0.13073 0.0812,0.0685 0.143673,0.1307 0.331123,0.32992 0.637143,0.57258 0.306019,0.24266 0.636463,0.19841 0.09351,-0.0189 0.18075,-0.0565 0.09346,-0.0438 0.19938,-0.10014 z" />
        <path
           inkscape:connector-curvature="0"
           id="path5664"
           style="font-style:normal;font-variant:normal;font-weight:bold;font-stretch:normal;font-size:8.81944561px;font-family:'Alte Haas Grotesk';-inkscape-font-specification:'Alte Haas Grotesk Bold';letter-spacing:0.55297917px;fill:#ff0000;fill-opacity:1;stroke-width:0.26458332"
           d="m 85.868432,224.75597 q -0.0335,0.0446 -0.142327,0.11982 -0.09656,0.0775 -0.150115,0.093 l -0.09432,0.0652 q -0.08258,0.0356 -0.162385,0.0908 -0.07981,0.0552 -0.16964,0.0958 -0.06081,0.0206 -0.116615,0.0484 -0.0558,0.0279 -0.116615,0.0484 -0.155664,0.054 -0.304073,0.10297 -0.143394,0.0562 -0.294578,0.0857 -0.658293,0.13337 -1.255028,-9.5e-4 -0.589481,-0.13933 -1.146958,-0.55809 -0.08418,-0.0597 -0.153853,-0.12952 -0.06967,-0.0698 -0.139343,-0.13955 -0.03958,-0.0263 -0.06967,-0.0698 -0.02507,-0.0363 -0.0574,-0.0675 l -0.187249,-0.22438 q -0.02731,-0.024 -0.07021,-0.10157 -0.05015,-0.0726 -0.05794,-0.0993 -0.01782,-0.0413 -0.04289,-0.0776 -0.02731,-0.024 -0.04513,-0.0653 l -0.05516,-0.0798 q -0.02561,-0.0681 -0.05345,-0.12387 -0.0351,-0.0508 -0.06071,-0.11886 -0.02561,-0.0681 -0.05121,-0.13614 -0.03286,-0.063 -0.05847,-0.13112 -0.02614,-0.0999 -0.0573,-0.20699 -0.02614,-0.0999 -0.04503,-0.20474 -0.112249,-0.56568 -0.0109,-1.08603 0.11362,-0.5181 0.41854,-1.00761 0.07148,-0.11374 0.16025,-0.21798 0.09602,-0.10925 0.187029,-0.22576 0.02625,-0.0396 0.04801,-0.0546 0.02902,-0.0201 0.05302,-0.0474 0.04076,-0.0496 0.08653,-0.092 0.05303,-0.0474 0.101036,-0.102 0.03126,-0.0323 0.06028,-0.0524 0.04129,-0.0178 0.06028,-0.0524 0.03852,-0.0373 0.08706,-0.0602 0.0558,-0.0279 0.09432,-0.0652 0.02625,-0.0396 0.0988,-0.0897 0.07981,-0.0552 0.12611,-0.0657 0.04129,-0.0178 0.06529,-0.0451 0.03126,-0.0323 0.07255,-0.0502 l 0.04353,-0.0301 q 0.06081,-0.0206 0.09933,-0.0579 0.05079,-0.0351 0.104345,-0.0507 0.04631,-0.0106 0.08258,-0.0356 0.04353,-0.0301 0.08983,-0.0406 0.148409,-0.049 0.279533,-0.10744 0.13838,-0.0635 0.284549,-0.10019 0.163453,-0.0272 0.321891,-0.0617 0.158439,-0.0345 0.317411,-0.0371 0.498682,-0.0231 0.926416,0.0994 0.427734,0.12248 0.875422,0.41342 0.101466,0.0693 0.193437,0.15577 0.09699,0.0938 0.196211,0.1753 0.03958,0.0262 0.05964,0.0553 0.02507,0.0363 0.0574,0.0675 l 0.172205,0.2026 q 0.01728,0.01 0.02507,0.0363 0.0128,0.034 0.03009,0.0435 0.370552,0.50508 0.50798,0.96759 0.144683,0.4575 0.139889,0.90038 -1.05e-4,0.13945 -0.01696,0.30119 -0.0096,0.15674 -0.05153,0.28221 -0.0112,0.0613 -0.02966,0.12771 -0.0112,0.0614 -0.02742,0.11544 -0.06092,0.16004 -0.129093,0.3251 -0.06092,0.16004 -0.158648,0.31336 -0.07148,0.11373 -0.145739,0.20794 -0.06924,0.10147 -0.152994,0.21296 -0.05751,0.0719 -0.127283,0.14159 -0.06252,0.0647 -0.127282,0.14158 -0.04076,0.0496 -0.09154,0.0847 -0.04353,0.0301 -0.07703,0.0747 -0.0335,0.0446 -0.0893,0.0724 -0.04353,0.0301 -0.07479,0.0624 z m -1.081988,-0.91391 q 0.04631,-0.0106 0.1116,-0.0557 0.07255,-0.0501 0.0988,-0.0897 l 0.123335,-0.0853 q 0.02401,-0.0273 0.04577,-0.0423 0.03404,-0.0128 0.05302,-0.0474 0.04801,-0.0546 0.09378,-0.097 0.05804,-0.0401 0.0988,-0.0897 0.03627,-0.0251 0.06978,-0.0697 0.06476,-0.0769 0.129523,-0.15386 0.06476,-0.0769 0.119493,-0.16836 0.259685,-0.41536 0.273974,-0.87553 0.02656,-0.45792 -0.344527,-0.9948 -0.01728,-0.009 -0.03233,-0.0313 -0.0028,-0.0195 -0.02006,-0.029 -0.02731,-0.024 -0.04737,-0.053 -0.0128,-0.034 -0.05239,-0.0603 -0.06967,-0.0698 -0.146598,-0.13454 -0.06466,-0.0625 -0.138809,-0.10776 -0.341207,-0.21445 -0.698736,-0.23535 -0.352513,-0.0137 -0.75421,0.10318 -0.09485,0.0334 -0.184684,0.074 -0.07757,0.0429 -0.172415,0.0763 -0.03403,0.0128 -0.06305,0.0329 -0.02177,0.015 -0.0558,0.0278 -0.04631,0.0106 -0.08482,0.0479 -0.03852,0.0373 -0.07981,0.0552 -0.0463,0.0106 -0.152889,0.0735 -0.09432,0.0652 -0.120562,0.10477 l -0.07981,0.0552 q -0.02401,0.0273 -0.06028,0.0524 -0.02902,0.0201 -0.05302,0.0474 -0.02902,0.02 -0.05804,0.0401 -0.01675,0.0223 -0.04577,0.0424 -0.06476,0.0769 -0.139552,0.13934 -0.06978,0.0697 -0.122268,0.14884 -0.177,0.24028 -0.299906,0.49677 -0.115651,0.25148 -0.118635,0.51085 -0.0112,0.0613 -0.0079,0.11266 0.0083,0.0586 0.01665,0.11715 0.0044,0.11491 0.03553,0.22203 0.03617,0.11437 0.07736,0.236 0.01056,0.0463 0.03062,0.0753 0.03233,0.0313 0.05015,0.0725 0.01558,0.0536 0.04567,0.0971 0.03009,0.0435 0.06519,0.0943 l 0.04012,0.058 q 0.03233,0.0313 0.04513,0.0653 0.02006,0.029 0.05964,0.0553 0.06466,0.0625 0.122058,0.13005 0.06466,0.0625 0.138809,0.10776 0.338967,0.22672 0.655206,0.26544 0.321253,0.046 0.718469,-0.0463 0.104879,-0.0189 0.209224,-0.0696 0.109359,-0.0434 0.223734,-0.0796 l 0.189165,-0.0986 q 0.03404,-0.0128 0.06306,-0.0329 0.03627,-0.0251 0.07255,-0.0501 z" />
        <path
           inkscape:connector-curvature="0"
           id="path5666"
           style="font-style:normal;font-variant:normal;font-weight:bold;font-stretch:normal;font-size:8.81944561px;font-family:'Alte Haas Grotesk';-inkscape-font-specification:'Alte Haas Grotesk Bold';letter-spacing:0.55297917px;fill:#ff0000;fill-opacity:1;stroke-width:0.26458332"
           d="m 89.54342,225.57923 0.320414,0.67772 q 0.04147,0.0877 0.07119,0.17121 0.04147,0.0877 0.0045,0.15396 -0.03696,0.0662 -0.132644,0.11149 -0.08771,0.0415 -0.191358,0.0905 l -0.725567,0.34303 -2.415898,1.14218 -0.470423,0.22241 q -0.06379,0.0301 -0.131341,0.0523 -0.05581,0.0264 -0.104087,0.0687 l -0.07973,0.0377 q -0.05581,0.0264 -0.111626,0.0528 -0.04407,0.0306 -0.0764,0.0654 -0.07726,0.10482 0.0019,0.27226 0.07916,0.16744 0.154553,0.3269 l 0.731298,1.54682 q 0.03016,0.0638 0.07539,0.15946 0.05321,0.0919 0.0867,0.18339 0.04147,0.0877 0.05944,0.167 0.02175,0.0873 0.0012,0.12627 -0.02899,0.0625 -0.100751,0.0964 -0.07176,0.0339 -0.151492,0.0716 l -0.36677,0.1734 q -0.06379,0.0302 -0.119599,0.0565 -0.05204,0.0344 -0.09945,0.0373 -0.07887,-0.002 -0.125402,-0.0383 -0.05074,-0.0248 -0.08844,-0.10452 -0.0377,-0.0797 -0.07162,-0.15149 l -0.26764,-0.5661 -1.021556,-2.16076 -0.27141,-0.57407 q -0.05277,-0.11163 -0.08627,-0.2031 -0.02175,-0.0873 0.02319,-0.1573 0.03276,-0.0545 0.10452,-0.0884 0.07973,-0.0377 0.151492,-0.0716 l 0.558128,-0.26387 2.112914,-0.99893 1.801957,-0.85193 0.502316,-0.23748 q 0.07176,-0.0339 0.143518,-0.0679 0.07553,-0.0259 0.126704,-0.0209 0.07089,0.006 0.140046,0.0899 0.01551,0.0122 0.01508,0.0319 0.0075,0.016 0.02305,0.0281 z" />
        <path
           inkscape:connector-curvature="0"
           id="path5668"
           style="font-style:normal;font-variant:normal;font-weight:bold;font-stretch:normal;font-size:8.81944561px;font-family:'Alte Haas Grotesk';-inkscape-font-specification:'Alte Haas Grotesk Bold';letter-spacing:0.55297917px;fill:#ff0000;fill-opacity:1;stroke-width:0.26458332"
           d="m 91.675437,230.28079 0.222715,0.74347 q 0.03037,0.10138 0.06327,0.21121 0.0329,0.10983 0.01935,0.18754 -0.0144,0.10559 -0.114966,0.20016 -0.09803,0.10302 -0.164802,0.18747 -0.185086,0.21196 -0.375233,0.40702 -0.190147,0.19506 -0.375233,0.40702 -0.136069,0.16044 -0.285649,0.30653 -0.141131,0.14355 -0.2772,0.30399 -0.05493,0.0625 -0.126765,0.13004 -0.06338,0.065 -0.05244,0.16302 0.0093,0.0617 0.07261,0.0887 0.06334,0.0271 0.104731,0.0423 0.141057,0.0406 0.277052,0.0643 0.138526,0.0322 0.279583,0.0728 0.340398,0.0914 0.678264,0.17429 0.346315,0.0804 0.695161,0.16923 0.130077,0.0347 0.29648,0.0677 0.166402,0.033 0.252525,0.13611 0.06502,0.0634 0.104658,0.22643 0.04217,0.1715 0.0776,0.28978 l 0.141727,0.47312 q 0.02025,0.0676 0.03204,0.13771 0.02278,0.076 0.01009,0.12587 -0.022,0.0802 -0.125053,0.0743 -0.09461,-0.008 -0.144444,-0.0212 -0.19934,-0.0508 -0.398681,-0.10153 -0.188361,-0.0448 -0.387701,-0.0956 -0.542269,-0.15059 -1.079476,-0.28427 -0.534676,-0.12524 -1.074414,-0.26738 -0.163016,-0.0524 -0.331949,-0.0939 -0.157954,-0.0355 -0.326887,-0.077 -0.11318,-0.0397 -0.22383,-0.071 -0.108119,-0.0229 -0.236521,-0.0212 -0.04477,0.004 -0.08702,0.0169 -0.03126,0.0186 -0.07604,0.0228 -0.02788,-8.5e-4 -0.06167,0.009 -0.03379,0.0101 -0.06759,0.0202 l -0.261904,0.0785 -1.098307,0.32901 q -0.160522,0.0481 -0.346389,0.10377 -0.183337,0.0641 -0.272846,-0.0195 -0.04898,-0.0406 -0.07429,-0.12506 -0.02278,-0.076 -0.04555,-0.15207 l -0.177159,-0.5914 q -0.02784,-0.0929 -0.04217,-0.1715 -0.01433,-0.0786 0.02371,-0.13599 0.03804,-0.0574 0.105625,-0.0777 0.06759,-0.0202 0.157991,-0.0565 l 0.329492,-0.0987 1.098307,-0.32901 0.321044,-0.0962 q 0.05069,-0.0152 0.101382,-0.0304 0.05914,-0.0177 0.09632,-0.0473 0.116604,-0.0718 0.200271,-0.16127 0.08367,-0.0895 0.156353,-0.18494 0.112398,-0.11653 0.216349,-0.23053 0.112398,-0.11653 0.222266,-0.2415 0.07269,-0.0954 0.158884,-0.17649 0.09465,-0.0836 0.167333,-0.17902 0.280587,-0.32343 0.566236,-0.62996 0.285649,-0.30653 0.568767,-0.6215 0.1386,-0.152 0.262834,-0.29049 0.132683,-0.14102 0.273814,-0.28457 0.0262,-0.0355 0.08705,-0.10894 0.07183,-0.0675 0.141094,-0.0515 0.03886,0.007 0.0549,0.0296 0.02702,0.0287 0.04559,0.06 0.01351,0.0144 0.01012,0.0338 0.0051,0.0169 0.01857,0.0313 z" />
        <path
           inkscape:connector-curvature="0"
           id="path5670"
           style="font-style:normal;font-variant:normal;font-weight:bold;font-stretch:normal;font-size:8.81944561px;font-family:'Alte Haas Grotesk';-inkscape-font-specification:'Alte Haas Grotesk Bold';letter-spacing:0.55297917px;fill:#ff0000;fill-opacity:1;stroke-width:0.26458332"
           d="m 94.1662,240.61115 q 0.12022,0.91837 -0.146348,1.55156 -0.266568,0.63319 -0.779647,1.0454 -0.138248,0.11305 -0.289173,0.19201 -0.14216,0.078 -0.320358,0.1511 -0.0594,0.0244 -0.136328,0.0507 -0.07693,0.0263 -0.149984,0.008 -0.05455,-0.0117 -0.07794,-0.0623 -0.01365,-0.0429 -0.03803,-0.10225 l -0.0078,-0.0701 q -0.0234,-0.0506 -0.03122,-0.12075 0.0019,-0.0623 -0.0049,-0.12369 -0.0088,-0.0789 -0.03028,-0.19186 -0.01174,-0.10518 -0.02347,-0.21036 -0.003,-0.10616 -0.004,-0.19478 0.0078,-0.0896 0.02916,-0.13637 0.05353,-0.077 0.1548,-0.12376 0.101268,-0.0468 0.174286,-0.10819 0.270665,-0.19881 0.406883,-0.48911 0.09341,-0.19678 0.1381,-0.4325 0.03596,-0.15487 0.01054,-0.38276 -0.02445,-0.21913 -0.08686,-0.38077 -0.02535,-0.0682 -0.04973,-0.12757 -0.01463,-0.0516 -0.04777,-0.11003 -0.320691,-0.56766 -0.935333,-0.74756 -0.110071,-0.0321 -0.227928,-0.0544 -0.117858,-0.0223 -0.245459,-0.0525 -0.06233,-0.002 -0.115901,-0.005 -0.05357,-0.003 -0.115902,-0.005 -0.05455,-0.0117 -0.115902,-0.005 -0.05161,0.0146 -0.114923,0.004 -0.07208,-0.01 -0.150962,-9.1e-4 -0.06914,0.0166 -0.139263,0.0244 -0.03506,0.004 -0.0711,-9.4e-4 -0.03506,0.004 -0.06914,0.0166 l -0.07888,0.009 q -0.04187,0.0224 -0.08667,0.0185 -0.04382,0.005 -0.08569,0.0273 -0.05259,0.006 -0.138285,0.0332 -0.09446,0.0283 -0.180154,0.0556 -0.07693,0.0263 -0.152881,0.0614 -0.354441,0.16378 -0.595876,0.38596 -0.232671,0.22119 -0.363999,0.55531 -0.03307,0.10131 -0.05639,0.2104 -0.01456,0.10811 -0.03593,0.23474 -0.0039,0.0448 -0.0087,0.0808 0.0049,0.0438 0.0098,0.0876 l 0.0078,0.0701 q -0.01264,0.0458 -0.0048,0.1159 0.01659,0.0691 0.03024,0.11199 0.0059,0.0526 0.01757,0.0779 0.02927,0.10322 0.05658,0.18892 0.02829,0.0945 0.08189,0.17722 0.110145,0.19181 0.266034,0.31641 0.165632,0.13238 0.362412,0.22578 0.09352,0.0428 0.202611,0.0661 0.109092,0.0233 0.219163,0.0554 0.09935,0.0155 0.181169,0.033 0.08182,0.0175 0.135425,0.10026 0.0234,0.0506 0.0322,0.12952 0.0088,0.0789 0.01663,0.149 l 0.05966,0.53467 q 0.0088,0.0789 0.0176,0.15777 0.0098,0.0876 -0.01941,0.14415 -0.03698,0.0662 -0.133395,0.077 -0.09544,0.0195 -0.186022,0.003 l -0.242524,-0.0262 q -0.136366,-0.0292 -0.263967,-0.0593 -0.126622,-0.0214 -0.247414,-0.07 -0.07501,-0.036 -0.148065,-0.0545 -0.06429,-0.0195 -0.130534,-0.0564 -0.807585,-0.39797 -1.208286,-1.28505 -0.04582,-0.0925 -0.07411,-0.18696 -0.02829,-0.0945 -0.05658,-0.18892 -0.02242,-0.0419 -0.01855,-0.0867 -0.0039,-0.0351 -0.02633,-0.0769 -0.0068,-0.0614 -0.01369,-0.12271 -0.01463,-0.0516 -0.03024,-0.11199 l -0.01565,-0.14024 q -0.0088,-0.0789 -0.0176,-0.15777 -0.0088,-0.0789 9.04e-4,-0.15096 0.0058,-0.0273 -10e-4,-0.0886 0.0019,-0.0623 0.0038,-0.12467 0.0019,-0.0623 0.0029,-0.13343 0.01651,-0.0906 0.02426,-0.18019 0.0087,-0.0808 0.02524,-0.17143 0.01749,-0.0818 0.03499,-0.16364 0.02626,-0.0828 0.05349,-0.15683 0.169212,-0.55133 0.505033,-0.96151 0.345564,-0.4024 0.84604,-0.68898 0.125607,-0.0673 0.253171,-0.11699 0.127564,-0.0497 0.262915,-0.1092 0.04187,-0.0224 0.06816,-0.0254 0.03506,-0.004 0.06914,-0.0166 0.07693,-0.0263 0.163602,-0.0449 0.08667,-0.0185 0.163602,-0.0449 0.04187,-0.0224 0.06816,-0.0254 0.03604,0.005 0.07012,-0.008 l 0.166536,-0.0186 q 0.04187,-0.0224 0.12952,-0.0322 0.08765,-0.01 0.133432,0.003 0.02727,0.006 0.05259,-0.006 0.03506,-0.004 0.05259,-0.006 l 0.07888,-0.009 q 0.07208,0.01 0.150962,9e-4 0.07986,-4e-5 0.159727,-7e-5 0.07208,0.01 0.13441,0.0116 0.0711,9.4e-4 0.143175,0.0106 0.126622,0.0214 0.243502,0.0349 0.125645,0.0126 0.235715,0.0447 0.118836,0.0311 0.237672,0.0622 0.119813,0.0399 0.223075,0.0905 0.261069,0.11285 0.470526,0.24034 0.06625,0.037 0.124704,0.0837 0.05846,0.0467 0.116917,0.0934 0.243576,0.19468 0.418988,0.41471 0.185155,0.22781 0.342095,0.5209 0.05556,0.10029 0.09457,0.2113 0.04777,0.11004 0.08776,0.22981 0.0234,0.0506 0.02927,0.10323 0.0059,0.0526 0.02829,0.0945 0.01659,0.0691 0.02344,0.13049 0.01659,0.0692 0.03318,0.13829 0.01072,0.0165 0.0049,0.0438 -0.0058,0.0273 0.0049,0.0438 z" />
        <path
           inkscape:connector-curvature="0"
           id="path5672"
           style="font-style:normal;font-variant:normal;font-weight:bold;font-stretch:normal;font-size:8.81944561px;font-family:'Alte Haas Grotesk';-inkscape-font-specification:'Alte Haas Grotesk Bold';letter-spacing:0.55297917px;fill:#ff0000;fill-opacity:1;stroke-width:0.26458332"
           d="m 94.350745,246.39502 -0.0571,0.74747 q -0.0074,0.0967 -0.0229,0.184 -0.01618,0.0961 -0.07231,0.136 -0.07371,0.0386 -0.188029,0.0299 -0.106197,7.4e-4 -0.220517,-0.008 l -0.888177,-0.0679 -1.811528,-0.13837 -0.307784,-0.0235 q -0.03518,-0.003 -0.07847,-0.0148 -0.03517,-0.003 -0.07102,0.003 l -0.140701,-0.0108 q -0.07914,-0.006 -0.166411,-0.0216 -0.08794,-0.007 -0.159633,0.005 -0.06156,-0.005 -0.0974,0.001 -0.09808,0.0102 -0.195479,0.0116 -0.09807,0.0102 -0.197495,0.038 -0.236028,0.0793 -0.396942,0.21734 -0.161587,0.14687 -0.269005,0.39518 -0.02296,0.069 -0.03713,0.13868 -0.01417,0.0697 -0.03713,0.13869 -0.02095,0.0426 -0.02363,0.0778 0.0061,0.0358 -0.006,0.0791 -0.01148,0.0345 -0.01753,0.11365 0.0027,0.0798 0.0095,0.10687 l -0.01008,0.13191 q 0.01221,0.0717 0.01563,0.14272 0.0034,0.071 0.01631,0.13392 0.01698,0.12513 0.04678,0.19817 0.05826,0.16366 0.163847,0.28671 0.113709,0.13252 0.257831,0.21429 0.22125,0.11419 0.527691,0.15529 0.315234,0.0418 0.6494,0.0673 l 1.749971,0.13367 1.178373,0.09 q 0.123114,0.009 0.273281,0.012 0.149495,0.0114 0.215815,0.0696 0.0494,0.048 0.05215,0.12781 0.01154,0.0805 0.0042,0.17722 l -0.04299,0.56281 q -0.0054,0.0703 -0.01008,0.13191 0.0034,0.071 -0.01887,0.13123 -0.03579,0.1211 -0.100029,0.15157 -0.07371,0.0386 -0.204945,0.0197 -0.123113,-0.009 -0.228639,-0.0175 l -1.178373,-0.09 -1.776353,-0.13569 q -0.334166,-0.0255 -0.650072,-0.0585 -0.315906,-0.033 -0.565553,-0.1228 -0.403906,-0.15469 -0.696912,-0.37166 -0.284884,-0.20751 -0.472425,-0.53142 -0.172641,-0.28738 -0.267542,-0.66613 -0.02034,-0.0812 -0.03121,-0.17044 -0.01154,-0.0805 -0.02309,-0.16098 -0.01356,-0.0541 -0.0095,-0.10687 0.0034,-0.044 -0.0102,-0.0981 -0.0095,-0.10687 -0.0082,-0.23945 0.0013,-0.13258 0.01069,-0.25569 0.05502,-0.83609 0.311078,-1.40915 0.264851,-0.5724 0.774037,-0.86962 0.167022,-0.10222 0.34015,-0.16861 0.18125,-0.0569 0.388211,-0.10302 0.04531,-0.0142 0.07169,-0.0122 0.03518,0.003 0.08049,-0.0115 0.251601,-0.0515 0.559385,-0.028 0.307784,0.0235 0.615568,0.047 l 2.453478,0.18741 0.615568,0.047 q 0.08794,0.007 0.167083,0.0128 0.08794,0.007 0.138686,0.0371 0.05753,0.0575 0.07719,0.14742 -0.0013,0.0176 -0.0027,0.0352 -0.0013,0.0176 0.0061,0.0358 z" />
        <path
           inkscape:connector-curvature="0"
           id="path5674"
           style="font-style:normal;font-variant:normal;font-weight:bold;font-stretch:normal;font-size:8.81944561px;font-family:'Alte Haas Grotesk';-inkscape-font-specification:'Alte Haas Grotesk Bold';letter-spacing:0.55297917px;fill:#ff0000;fill-opacity:1;stroke-width:0.26458332"
           d="m 93.381494,254.52241 -0.183029,0.72696 q -0.02369,0.0941 -0.05377,0.17745 -0.02369,0.0941 -0.09432,0.12177 -0.07063,0.0277 -0.173264,0.002 -0.09408,-0.0237 -0.205261,-0.0517 l -0.778282,-0.19595 -2.59142,-0.65244 -0.5046,-0.12705 q -0.06842,-0.0172 -0.134687,-0.043 -0.05987,-0.0151 -0.124042,-0.013 l -0.08553,-0.0215 q -0.05987,-0.0151 -0.119736,-0.0301 -0.05347,-0.004 -0.100538,0.002 -0.126256,0.0319 -0.171475,0.21148 -0.04522,0.1796 -0.08828,0.35065 l -0.417738,1.6592 q -0.01723,0.0684 -0.04307,0.17105 -0.01729,0.10478 -0.04952,0.1967 -0.02369,0.0941 -0.06017,0.16675 -0.03864,0.0812 -0.07931,0.0983 -0.06208,0.0299 -0.139055,0.0105 -0.07697,-0.0194 -0.162498,-0.0409 l -0.393417,-0.0991 q -0.06842,-0.0172 -0.128288,-0.0323 -0.06202,-0.007 -0.100477,-0.0344 -0.05981,-0.0514 -0.07255,-0.10921 -0.02344,-0.0514 -0.0019,-0.1369 0.02153,-0.0855 0.04091,-0.1625 l 0.152884,-0.60723 0.583541,-2.31774 0.155037,-0.61578 q 0.03015,-0.11974 0.06239,-0.21166 0.03864,-0.0812 0.117824,-0.10676 0.05993,-0.0213 0.136902,-0.002 0.08553,0.0215 0.162498,0.0409 l 0.598678,0.15073 2.266423,0.57063 1.932875,0.48664 0.53881,0.13566 q 0.07697,0.0194 0.153946,0.0387 0.07482,0.0279 0.111122,0.0644 0.05125,0.0493 0.05107,0.15837 0.0042,0.0193 -0.0086,0.0342 -0.0043,0.0171 -6.1e-5,0.0364 z" />
        <path
           inkscape:connector-curvature="0"
           id="path5676"
           style="font-style:normal;font-variant:normal;font-weight:bold;font-stretch:normal;font-size:8.81944561px;font-family:'Alte Haas Grotesk';-inkscape-font-specification:'Alte Haas Grotesk Bold';letter-spacing:0.55297917px;fill:#ff0000;fill-opacity:1;stroke-width:0.26458332"
           d="m 91.490132,261.04485 -1.306681,3.02861 -0.303961,0.70452 q -0.04193,0.0972 -0.08846,0.18276 -0.04653,0.0856 -0.120684,0.10161 -0.03128,0.006 -0.06367,-0.008 -0.03589,-0.006 -0.07527,-0.004 l -0.08908,-0.0384 q -0.06018,-0.0164 -0.121468,-0.0524 -0.06478,-0.0279 -0.121469,-0.0524 -0.06478,-0.028 -0.129566,-0.0559 -0.06018,-0.0164 -0.113371,-0.0489 -0.037,-0.0256 -0.117974,-0.0605 -0.08669,-0.0662 -0.09463,-0.13688 -0.01143,-0.0626 0.02002,-0.13544 0.03144,-0.0729 0.06638,-0.15386 l 0.241072,-0.55876 0.632378,-1.46572 q 0.02795,-0.0648 0.06638,-0.15386 0.04304,-0.0775 0.07337,-0.17006 0.03494,-0.081 0.05019,-0.16084 0.02335,-0.0764 0.01303,-0.11925 -0.01603,-0.0742 -0.09002,-0.12529 -0.06939,-0.0395 -0.166562,-0.0815 l -0.46158,-0.19914 -0.234839,-0.10132 q -0.07177,-0.0118 -0.127346,-0.0165 -0.04748,-0.001 -0.08924,0.0287 -0.05335,0.0346 -0.0894,0.0959 -0.02795,0.0648 -0.05939,0.13767 l -0.188665,0.43728 -0.600934,1.39284 q -0.02446,0.0567 -0.0594,0.13766 -0.03033,0.0926 -0.07337,0.17006 -0.03494,0.081 -0.07099,0.14227 -0.03954,0.0694 -0.07781,0.0913 -0.04176,0.03 -0.121631,0.0148 -0.07987,-0.0153 -0.168946,-0.0537 -0.08447,-0.0268 -0.170056,-0.0734 -0.08908,-0.0384 -0.15386,-0.0664 -0.05669,-0.0245 -0.11337,-0.0489 -0.05669,-0.0245 -0.09019,-0.0581 -0.05779,-0.0442 -0.07732,-0.1102 -0.0068,-0.051 0.01652,-0.12735 0.01985,-0.0683 0.05828,-0.15735 0.03494,-0.081 0.07337,-0.17006 0.04304,-0.0775 0.06749,-0.13417 l 0.681292,-1.57909 q 0.04193,-0.0972 0.08036,-0.18625 0.04653,-0.0856 0.06527,-0.17355 0.02335,-0.0764 0.0073,-0.15053 -0.01143,-0.0626 -0.07383,-0.1183 -0.037,-0.0256 -0.08558,-0.0465 -0.04049,-0.0175 -0.08098,-0.0349 l -0.30772,-0.13276 -0.453483,-0.19566 q -0.09718,-0.0419 -0.181647,-0.0688 -0.07987,-0.0153 -0.144815,0.024 -0.03477,0.0138 -0.05685,0.0427 -0.01747,0.0405 -0.05113,0.074 l -0.03494,0.081 q -0.02557,0.037 -0.04653,0.0856 -0.01287,0.0521 -0.03033,0.0926 l -0.14674,0.34011 -0.656834,1.52241 -0.185172,0.42919 q -0.02795,0.0648 -0.05241,0.12146 -0.02795,0.0648 -0.07321,0.10289 -0.05224,0.0543 -0.127509,0.0507 -0.04748,-10e-4 -0.104163,-0.0257 -0.06018,-0.0164 -0.124962,-0.0443 l -0.372503,-0.16071 q -0.09717,-0.0419 -0.182758,-0.0885 -0.07748,-0.043 -0.09002,-0.12529 -0.01953,-0.066 0.01541,-0.14703 0.03144,-0.0729 0.06988,-0.16196 l 0.262035,-0.60734 1.034165,-2.39698 0.27601,-0.63974 q 0.04891,-0.11337 0.09544,-0.19895 0.05113,-0.074 0.133386,-0.0865 0.06256,-0.0114 0.135444,0.02 0.08098,0.0349 0.15386,0.0664 l 0.583049,0.25155 2.202628,0.95031 1.765343,0.76165 0.502069,0.21662 q 0.07288,0.0314 0.145763,0.0629 0.07288,0.0314 0.0994,0.0813 0.04271,0.0568 0.02857,0.15641 0.0011,0.0197 -0.01398,0.0324 -0.007,0.0162 -0.0059,0.0359 z" />
      </g>
    </g>
    <g
       inkscape:label="UWU"
       id="g6260"
       inkscape:groupmode="layer">
      <g
         id="g6296"
         transform="matrix(0.5463344,0,0,0.5463344,-22.806602,197.41896)">
        <path
           inkscape:connector-curvature="0"
           id="path6244"
           d="m 88.236433,112.55148 1.200153,3.32819 3.53616,0.11294 -2.794425,2.16988 0.985315,3.39799 -2.927203,-1.98712 -2.927202,1.98712 0.985314,-3.39799 -2.794425,-2.16988 3.53616,-0.11294 z"
           inkscape:transform-center-y="-0.47556355"
           style="opacity:1;fill:#000000;fill-opacity:0.99563317;stroke:none;stroke-width:0.09387209;stroke-linecap:round;stroke-linejoin:round;stroke-miterlimit:4;stroke-dasharray:none;stroke-opacity:1" />
        <path
           d="m 96.030848,110.78756 h 2.089454 q 0.270393,0 0.516212,0.0176 0.270402,0.0176 0.393303,0.12291 0.12291,0.14047 0.12291,0.36872 0.02462,0.21071 0.02462,0.43897 v 1.7734 3.61703 0.61455 q 0,0.0702 -0.02462,0.15802 0,0.0702 0.02462,0.14048 v 0.28093 q 0,0.15802 -0.02462,0.33361 0,0.17559 0.04915,0.31605 0,0.12291 0.02462,0.19314 0.04915,0.19314 0.07377,0.38629 0.04915,0.19314 0.147494,0.38629 0.270394,0.45651 0.688289,0.75501 0.44248,0.29849 1.15535,0.47407 0.19665,0.0351 0.39332,0.0527 0.19665,0.0176 0.3933,0.0526 0.12291,0.0351 0.22124,0.0351 0.0983,-0.0176 0.22123,0 0.0983,0.0176 0.31956,0.0176 0.22124,-0.0176 0.29498,-0.0352 h 0.36873 q 0.19666,-0.0351 0.39332,-0.0526 0.19665,-0.0176 0.36872,-0.0527 0.34414,-0.0526 0.5408,-0.12291 0.44247,-0.14046 0.76203,-0.36872 0.34415,-0.24582 0.54081,-0.54431 0.27039,-0.45653 0.31956,-1.07107 0.0491,-0.63211 0.0491,-1.29933 v -3.49412 -2.35283 q 0,-0.24582 -0.0246,-0.54431 0,-0.29849 0.14749,-0.43897 0.12291,-0.10534 0.34414,-0.1229 0.22124,-0.0351 0.49164,-0.0351 h 1.57324 q 0.19665,0 0.36872,0 0.19666,-0.0176 0.36873,0.0176 0.34415,0.0527 0.44247,0.17559 0.12291,0.14047 0.0983,0.40385 0,0.24581 0,0.45651 v 2.35283 3.54681 q 0,0.66721 -0.0246,1.29932 -0.0246,0.6321 -0.22124,1.1413 -0.34414,0.82524 -0.88494,1.43979 -0.51623,0.59698 -1.37659,1.01839 -0.76203,0.38628 -1.79447,0.63209 -0.22124,0.0526 -0.46705,0.0878 -0.22123,0.0352 -0.44247,0.0702 -0.14749,0.0351 -0.29499,0.0351 -0.12291,0 -0.27039,0.0351 -0.29499,0.0351 -0.66371,0.0526 -0.36873,0.0176 -0.71288,0.0176 -2.33527,0.0176 -3.982253,-0.40385 -1.646974,-0.43895 -2.581083,-1.40467 -0.319563,-0.31605 -0.540799,-0.64966 -0.196655,-0.35116 -0.368728,-0.75501 -0.04916,-0.0878 -0.04916,-0.14047 0,-0.0702 -0.04917,-0.15803 -0.196655,-0.49164 -0.196655,-1.10618 0,-0.61455 0,-1.22908 v -4.8988 -1.2291 q 0,-0.17558 0,-0.33362 0,-0.17557 0.07374,-0.28092 0.147491,-0.12291 0.39331,-0.17559 0.04917,0 0.09833,0 0.04916,0 0.09833,-0.0176 z"
           style="font-style:normal;font-variant:normal;font-weight:bold;font-stretch:normal;font-size:23.37508965px;line-height:1.25;font-family:'Alte Haas Grotesk';-inkscape-font-specification:'Alte Haas Grotesk Bold';letter-spacing:0px;word-spacing:0px;fill:#000000;fill-opacity:0.99563317;stroke:none;stroke-width:0.27824211"
           id="path6246"
           inkscape:connector-curvature="0" />
        <path
           d="m 66.635907,110.78756 h 2.089453 q 0.270401,0 0.516218,0.0176 0.270399,0.0176 0.393309,0.12291 0.122908,0.14047 0.122908,0.36872 0.02457,0.21071 0.02457,0.43897 v 1.7734 3.61703 0.61455 q 0,0.0702 -0.02457,0.15802 0,0.0702 0.02457,0.14048 v 0.28093 q 0,0.15802 -0.02457,0.33361 0,0.17559 0.04917,0.31605 0,0.12291 0.02457,0.19314 0.04917,0.19314 0.07375,0.38629 0.04916,0.19314 0.14749,0.38629 0.2704,0.45651 0.688292,0.75501 0.442472,0.29849 1.155344,0.47407 0.196655,0.0351 0.393309,0.0527 0.196654,0.0176 0.393308,0.0526 0.122909,0.0351 0.221237,0.0351 0.09833,-0.0176 0.221237,0 0.09833,0.0176 0.319563,0.0176 0.221236,-0.0176 0.294981,-0.0352 h 0.368727 q 0.196655,-0.0351 0.393309,-0.0526 0.196654,-0.0176 0.368727,-0.0527 0.344145,-0.0526 0.5408,-0.12291 0.442472,-0.14046 0.762035,-0.36872 0.344146,-0.24582 0.5408,-0.54431 0.2704,-0.45653 0.319563,-1.07107 0.04917,-0.63211 0.04917,-1.29933 v -3.49412 -2.35283 q 0,-0.24582 -0.02458,-0.54431 0,-0.29849 0.147491,-0.43897 0.122909,-0.10534 0.344145,-0.1229 0.221237,-0.0351 0.491637,-0.0351 h 1.573234 q 0.196654,0 0.368727,0 0.196655,-0.0176 0.368728,0.0176 0.344144,0.0527 0.442472,0.17559 0.122908,0.14047 0.09833,0.40385 0,0.24581 0,0.45651 v 2.35283 3.54681 q 0,0.66721 -0.02458,1.29932 -0.02457,0.6321 -0.221236,1.1413 -0.344145,0.82524 -0.884944,1.43979 -0.516218,0.59698 -1.376582,1.01839 -0.762035,0.38628 -1.794471,0.63209 -0.221236,0.0526 -0.467054,0.0878 -0.221236,0.0352 -0.442472,0.0702 -0.147492,0.0351 -0.294982,0.0351 -0.122909,0 -0.2704,0.0351 -0.294982,0.0351 -0.663709,0.0526 -0.368726,0.0176 -0.712872,0.0176 -2.335272,0.0176 -3.982252,-0.40385 -1.64698,-0.43895 -2.581088,-1.40467 -0.319564,-0.31605 -0.540801,-0.64966 -0.196654,-0.35116 -0.368726,-0.75501 -0.04917,-0.0878 -0.04917,-0.14047 0,-0.0702 -0.04917,-0.15803 -0.196653,-0.49164 -0.196653,-1.10618 0,-0.61455 0,-1.22908 v -4.8988 -1.2291 q 0,-0.17558 0,-0.33362 0,-0.17557 0.07374,-0.28092 0.14749,-0.12291 0.393308,-0.17559 0.04917,0 0.09833,0 0.04917,0 0.09833,-0.0176 z"
           style="font-style:normal;font-variant:normal;font-weight:bold;font-stretch:normal;font-size:23.37508965px;line-height:1.25;font-family:'Alte Haas Grotesk';-inkscape-font-specification:'Alte Haas Grotesk Bold';letter-spacing:0px;word-spacing:0px;fill:#000000;fill-opacity:0.99563317;stroke:none;stroke-width:0.27824211"
           id="path6252"
           inkscape:connector-curvature="0" />
        <path
           d="m 77.506896,126.07217 h 1.941962 q 0.2704,0 0.5408,0 0.270399,0 0.417889,0.0878 0.196656,0.10535 0.245819,0.29849 0.07375,0.17559 0.147491,0.36872 0.09833,0.24582 0.172073,0.5092 0.07375,0.24582 0.172072,0.49163 0.04917,0.0878 0.04917,0.15803 0,0.0526 0.02457,0.14047 0.09833,0.24582 0.147492,0.49163 0.07375,0.24582 0.172073,0.49165 0.09833,0.19313 0.14749,0.40383 0.04917,0.2107 0.12291,0.4214 0.245817,0.57944 0.393308,1.17642 0.172073,0.59699 0.393309,1.17642 0.122909,0.26337 0.172073,0.52675 0.07375,0.26338 0.172073,0.52675 0.09833,0.2107 0.14749,0.36873 0.04916,0.14046 0.245818,0.28093 0.04916,0 0.04916,0.0176 0.02458,0 0.07375,-0.0176 0.14749,-0.0351 0.221235,-0.19315 0.07375,-0.15801 0.12291,-0.26337 0.09833,-0.22826 0.14749,-0.45651 0.07375,-0.24582 0.196655,-0.47408 0.02457,-0.0878 0.04916,-0.15803 0.02458,-0.0878 0.04917,-0.17559 0.122909,-0.22825 0.172073,-0.45651 0.07374,-0.24582 0.172073,-0.47408 0.02458,-0.0702 0.04916,-0.14047 0.02458,-0.0702 0.04917,-0.15802 0.07374,-0.15803 0.12291,-0.31606 0.04917,-0.17558 0.122909,-0.3336 0.04916,-0.14047 0.04916,-0.2107 0.04917,-0.12292 0.09833,-0.24583 0.04917,-0.1229 0.09833,-0.24582 0.221237,-0.49163 0.368727,-0.98326 0.147491,-0.5092 0.344145,-1.00083 0.122909,-0.24582 0.172073,-0.49163 0.07374,-0.24583 0.172073,-0.49165 0.09833,-0.19314 0.172072,-0.35117 0.07375,-0.17558 0.344146,-0.26337 0.172072,-0.0352 0.393308,-0.0352 0.221236,0 0.442473,0 h 1.450326 q 0.2704,0 0.491636,0.0176 0.245818,0 0.417891,0.0878 0.172073,0.0878 0.221236,0.26337 0.04917,0.15804 0.122908,0.33362 0.12291,0.31605 0.221237,0.64966 0.09833,0.31605 0.221236,0.6321 0.09833,0.22826 0.147491,0.45652 0.07375,0.22826 0.172073,0.45652 0.07375,0.19314 0.122909,0.38629 0.04917,0.17558 0.14749,0.36872 0.2704,0.64967 0.467055,1.33444 0.196654,0.66722 0.467054,1.31688 0.122909,0.26339 0.172072,0.54431 0.07375,0.28094 0.196655,0.52676 0.07374,0.17558 0.122908,0.33361 0.04917,0.14047 0.172073,0.26338 0.02457,0.0176 0.12291,0.0526 h 0.09833 q 0.02458,-0.0176 0.04917,-0.0176 0.02458,-0.0176 0.04916,-0.0352 0.147492,-0.14047 0.196656,-0.2985 0.04916,-0.17558 0.122908,-0.35117 0.12291,-0.28093 0.172073,-0.56187 0.07374,-0.28093 0.196655,-0.56187 0.319563,-0.77257 0.516217,-1.54514 0.221236,-0.77257 0.5408,-1.54514 0.122909,-0.28094 0.172072,-0.56187 0.07375,-0.28093 0.196655,-0.56187 0.04916,-0.0878 0.04916,-0.14046 0,-0.0702 0.02458,-0.15804 0.09833,-0.24581 0.172073,-0.49163 0.07374,-0.24582 0.172071,-0.49163 0.04917,-0.14047 0.09833,-0.31605 0.07374,-0.17559 0.221236,-0.26338 0.172072,-0.0878 0.417891,-0.10535 0.245818,-0.0176 0.565381,-0.0176 h 1.401162 q 0.245812,0 0.467049,0 0.24582,0 0.417897,0.0527 0.245811,0.0878 0.221236,0.29849 -0.02462,0.21071 -0.09833,0.38629 -0.196652,0.40384 -0.344137,0.86037 -0.12291,0.43896 -0.319571,0.86036 -0.04915,0.10535 -0.07377,0.2107 -0.02462,0.0878 -0.07375,0.19314 -0.122908,0.29849 -0.245818,0.63211 -0.09833,0.31605 -0.221236,0.61454 -0.04917,0.0878 -0.07375,0.17559 0,0.0878 -0.04917,0.17558 -0.12291,0.22825 -0.196655,0.45652 -0.04917,0.22826 -0.172072,0.45652 -0.04916,0.0878 -0.04916,0.15802 0,0.0702 -0.04917,0.15803 -0.122909,0.24581 -0.196655,0.50919 -0.04916,0.24582 -0.172072,0.49163 -0.07375,0.17559 -0.147491,0.35118 -0.04917,0.15802 -0.122908,0.3336 -0.294982,0.66723 -0.516219,1.352 -0.196654,0.68479 -0.516217,1.33444 -0.04917,0.12291 -0.07374,0.22827 -0.02458,0.10535 -0.07375,0.22825 -0.12291,0.2985 -0.245818,0.63211 -0.09833,0.31605 -0.245818,0.61454 -0.09833,0.22826 -0.172073,0.42141 -0.07375,0.19313 -0.368727,0.28094 -0.172073,0.0351 -0.417891,0.0351 -0.245818,0 -0.467053,0 h -1.597767 q -0.2704,0 -0.516218,0 -0.245819,-0.0176 -0.417892,-0.10535 -0.14749,-0.0878 -0.196653,-0.2107 -0.04916,-0.14046 -0.12291,-0.28094 -0.14749,-0.35117 -0.245817,-0.68478 -0.09833,-0.35116 -0.221237,-0.70233 -0.09833,-0.21071 -0.172072,-0.4214 -0.04917,-0.22826 -0.147492,-0.45653 -0.07375,-0.15802 -0.122908,-0.31605 -0.02458,-0.17558 -0.09833,-0.3336 -0.196654,-0.42141 -0.319564,-0.86037 -0.122908,-0.45652 -0.294981,-0.89548 -0.122909,-0.24582 -0.196654,-0.47408 -0.04917,-0.22825 -0.147492,-0.47407 -0.122908,-0.29849 -0.196654,-0.57943 -0.07375,-0.28094 -0.196654,-0.56187 -0.07375,-0.14046 -0.122909,-0.26337 -0.02458,-0.12292 -0.122909,-0.22827 -0.04916,-0.0352 -0.147491,-0.0702 -0.07374,-0.0176 -0.09833,0 -0.172073,0.0351 -0.245818,0.21069 -0.07374,0.1756 -0.12291,0.2985 -0.172072,0.36873 -0.2704,0.77257 -0.09833,0.38629 -0.245816,0.77257 -0.319565,0.79013 -0.565383,1.58026 -0.221235,0.79014 -0.540798,1.58026 -0.12291,0.28093 -0.196655,0.56187 -0.04917,0.26337 -0.172074,0.54432 -0.122908,0.24581 -0.196654,0.49163 -0.04917,0.24582 -0.14749,0.49163 -0.07374,0.17559 -0.147492,0.31605 -0.04916,0.14047 -0.245818,0.22827 -0.172071,0.0702 -0.41789,0.0702 -0.245818,0 -0.516218,0 h -2.138617 q -0.172072,-0.0351 -0.294981,-0.0351 -0.122909,-0.0176 -0.245818,-0.0878 -0.196654,-0.0878 -0.245818,-0.28092 -0.04916,-0.21071 -0.122909,-0.40385 -0.122909,-0.28094 -0.245818,-0.57942 -0.09833,-0.2985 -0.221237,-0.597 -0.04916,-0.10535 -0.07375,-0.19313 0,-0.10535 -0.04917,-0.22827 -0.147491,-0.29849 -0.245818,-0.59698 -0.09833,-0.2985 -0.221236,-0.59699 -0.04916,-0.0702 -0.04916,-0.12291 0,-0.0702 -0.02457,-0.14047 -0.12291,-0.24581 -0.221236,-0.50919 -0.07374,-0.28094 -0.196655,-0.54431 -0.02457,-0.0526 -0.02457,-0.10536 0,-0.0526 -0.04917,-0.1229 -0.122909,-0.24582 -0.196655,-0.49164 -0.04917,-0.26337 -0.172072,-0.52675 -0.07375,-0.17558 -0.147492,-0.35117 -0.04916,-0.19314 -0.122908,-0.36873 -0.07375,-0.17558 -0.12291,-0.35117 -0.04916,-0.17558 -0.14749,-0.35116 -0.221236,-0.5092 -0.393309,-1.03595 -0.147491,-0.52675 -0.368727,-1.03595 -0.04916,-0.10534 -0.07374,-0.2107 -0.02458,-0.10535 -0.07375,-0.2107 -0.172072,-0.36873 -0.294981,-0.75501 -0.122909,-0.38628 -0.294982,-0.77258 -0.04917,-0.1229 -0.14749,-0.36872 -0.07375,-0.24582 0.04917,-0.36873 0.122908,-0.10534 0.344145,-0.14046 0.04917,-0.0176 0.09833,0 0.04916,0 0.09833,-0.0176 z"
           style="font-style:normal;font-variant:normal;font-weight:bold;font-stretch:normal;font-size:23.37508965px;line-height:1.25;font-family:'Alte Haas Grotesk';-inkscape-font-specification:'Alte Haas Grotesk Bold';letter-spacing:0px;word-spacing:0px;fill:#000000;fill-opacity:0.99563317;stroke:none;stroke-width:0.27824211"
           id="path6240"
           inkscape:connector-curvature="0" />
        <path
           inkscape:connector-curvature="0"
           id="path6250"
           d="m 107.51938,126.08373 1.20014,3.32817 3.53616,0.11295 -2.79442,2.16988 0.98531,3.39799 -2.9272,-1.98713 -2.9272,1.98713 0.98531,-3.39799 -2.79442,-2.16988 3.53616,-0.11295 z"
           inkscape:transform-center-y="-0.47555959"
           style="opacity:1;fill:#000000;fill-opacity:0.99563317;stroke:none;stroke-width:0.09387209;stroke-linecap:round;stroke-linejoin:round;stroke-miterlimit:4;stroke-dasharray:none;stroke-opacity:1" />
        <path
           inkscape:connector-curvature="0"
           id="path6256"
           d="m 68.953513,126.08373 1.200153,3.32817 3.53616,0.11295 -2.794425,2.16988 0.985314,3.39799 -2.927202,-1.98713 -2.927202,1.98713 0.985314,-3.39799 -2.794425,-2.16988 3.53616,-0.11295 z"
           inkscape:transform-center-y="-0.47555959"
           style="opacity:1;fill:#000000;fill-opacity:0.99563317;stroke:none;stroke-width:0.09387209;stroke-linecap:round;stroke-linejoin:round;stroke-miterlimit:4;stroke-dasharray:none;stroke-opacity:1" />
      </g>
    </g>
  </g>
</svg>
